<?xml version="1.0" encoding="UTF-8" standalone="no"?>
<!DOCTYPE svg PUBLIC "-//W3C//DTD SVG 1.1//EN"
 "http://www.w3.org/Graphics/SVG/1.1/DTD/svg11.dtd">
<!-- Generated by graphviz version 5.0.0 (20220707.1540)
 -->
<!-- Title: dependencies Pages: 1 -->
<svg width="926pt" height="247pt"
 viewBox="0.00 0.00 926.00 246.80" xmlns="http://www.w3.org/2000/svg" xmlns:xlink="http://www.w3.org/1999/xlink">
<g id="graph0" class="graph" transform="scale(1 1) rotate(0) translate(4 242.8)">
<title>dependencies</title>
<polygon fill="white" stroke="transparent" points="-4,4 -4,-242.8 922,-242.8 922,4 -4,4"/>
<text text-anchor="middle" x="459" y="-8.2" font-family="sans-serif" font-size="14.00">dependencies</text>
<g id="clust14" class="cluster">
<title>cluster_HomePageModule</title>
<polygon fill="none" stroke="black" stroke-dasharray="1,5" points="306,-32.8 306,-157.8 606,-157.8 606,-32.8 306,-32.8"/>
</g>
<g id="clust15" class="cluster">
<title>cluster_HomePageModule_declarations</title>
<polygon fill="none" stroke="black" points="504,-40.8 504,-92.8 598,-92.8 598,-40.8 504,-40.8"/>
</g>
<g id="clust17" class="cluster">
<title>cluster_HomePageModule_imports</title>
<polygon fill="none" stroke="black" points="314,-40.8 314,-92.8 496,-92.8 496,-40.8 314,-40.8"/>
</g>
<g id="clust1" class="cluster">
<title>cluster_AppModule</title>
<polygon fill="none" stroke="black" stroke-dasharray="1,5" points="8,-32.8 8,-230.8 298,-230.8 298,-32.8 8,-32.8"/>
</g>
<g id="clust6" class="cluster">
<title>cluster_AppModule_bootstrap</title>
<polygon fill="none" stroke="black" points="96,-170.8 96,-222.8 220,-222.8 220,-170.8 96,-170.8"/>
</g>
<g id="clust2" class="cluster">
<title>cluster_AppModule_declarations</title>
<polygon fill="none" stroke="black" points="168,-40.8 168,-92.8 290,-92.8 290,-40.8 168,-40.8"/>
</g>
<g id="clust4" class="cluster">
<title>cluster_AppModule_imports</title>
<polygon fill="none" stroke="black" points="16,-40.8 16,-92.8 160,-92.8 160,-40.8 16,-40.8"/>
</g>
<g id="clust27" class="cluster">
<title>cluster_RetosPageModule</title>
<polygon fill="none" stroke="black" stroke-dasharray="1,5" points="614,-32.8 614,-157.8 910,-157.8 910,-32.8 614,-32.8"/>
</g>
<g id="clust30" class="cluster">
<title>cluster_RetosPageModule_imports</title>
<polygon fill="none" stroke="black" points="722,-40.8 722,-92.8 902,-92.8 902,-40.8 722,-40.8"/>
</g>
<g id="clust28" class="cluster">
<title>cluster_RetosPageModule_declarations</title>
<polygon fill="none" stroke="black" points="622,-40.8 622,-92.8 714,-92.8 714,-40.8 622,-40.8"/>
</g>
<!-- AppComponent -->
<g id="node1" class="node">
<title>AppComponent</title>
<polygon fill="#ffffb3" stroke="black" points="281.94,-84.8 176.06,-84.8 176.06,-48.8 281.94,-48.8 281.94,-84.8"/>
<text text-anchor="middle" x="229" y="-62.6" font-family="Times,serif" font-size="14.00">AppComponent</text>
</g>
<!-- AppModule -->
<g id="node2" class="node">
<title>AppModule</title>
<polygon fill="#8dd3c7" stroke="black" points="199.66,-149.8 196.66,-153.8 175.66,-153.8 172.66,-149.8 116.34,-149.8 116.34,-113.8 199.66,-113.8 199.66,-149.8"/>
<text text-anchor="middle" x="158" y="-127.6" font-family="Times,serif" font-size="14.00">AppModule</text>
</g>
<!-- AppComponent&#45;&gt;AppModule -->
<g id="edge1" class="edge">
<title>AppComponent&#45;&gt;AppModule</title>
<path fill="none" stroke="black" d="M188.06,-84.91C188.06,-84.91 188.06,-103.79 188.06,-103.79"/>
<polygon fill="black" stroke="black" points="184.56,-103.79 188.06,-113.79 191.56,-103.79 184.56,-103.79"/>
</g>
<!-- AppComponent  -->
<g id="node4" class="node">
<title>AppComponent </title>
<polygon fill="#80b1d3" stroke="black" points="212.44,-214.8 103.56,-214.8 103.56,-178.8 212.44,-178.8 212.44,-214.8"/>
<text text-anchor="middle" x="158" y="-192.6" font-family="Times,serif" font-size="14.00">AppComponent </text>
</g>
<!-- AppModule&#45;&gt;AppComponent  -->
<g id="edge3" class="edge">
<title>AppModule&#45;&gt;AppComponent </title>
<path fill="none" stroke="black" stroke-dasharray="1,5" d="M158,-149.91C158,-149.91 158,-168.79 158,-168.79"/>
<polygon fill="black" stroke="black" points="154.5,-168.79 158,-178.79 161.5,-168.79 154.5,-168.79"/>
</g>
<!-- AppRoutingModule -->
<g id="node3" class="node">
<title>AppRoutingModule</title>
<polygon fill="#8dd3c7" stroke="black" points="152.28,-84.8 149.28,-88.8 128.28,-88.8 125.28,-84.8 23.72,-84.8 23.72,-48.8 152.28,-48.8 152.28,-84.8"/>
<text text-anchor="middle" x="88" y="-62.6" font-family="Times,serif" font-size="14.00">AppRoutingModule</text>
</g>
<!-- AppRoutingModule&#45;&gt;AppModule -->
<g id="edge2" class="edge">
<title>AppRoutingModule&#45;&gt;AppModule</title>
<path fill="none" stroke="black" d="M134.28,-84.91C134.28,-84.91 134.28,-103.79 134.28,-103.79"/>
<polygon fill="black" stroke="black" points="130.78,-103.79 134.28,-113.79 137.78,-103.79 130.78,-103.79"/>
</g>
<!-- HomePage -->
<g id="node5" class="node">
<title>HomePage</title>
<polygon fill="#ffffb3" stroke="black" points="589.93,-84.8 512.07,-84.8 512.07,-48.8 589.93,-48.8 589.93,-84.8"/>
<text text-anchor="middle" x="551" y="-62.6" font-family="Times,serif" font-size="14.00">HomePage</text>
</g>
<!-- HomePageModule -->
<g id="node6" class="node">
<title>HomePageModule</title>
<polygon fill="#8dd3c7" stroke="black" points="531.48,-149.8 528.48,-153.8 507.48,-153.8 504.48,-149.8 410.52,-149.8 410.52,-113.8 531.48,-113.8 531.48,-149.8"/>
<text text-anchor="middle" x="471" y="-127.6" font-family="Times,serif" font-size="14.00">HomePageModule</text>
</g>
<!-- HomePage&#45;&gt;HomePageModule -->
<g id="edge4" class="edge">
<title>HomePage&#45;&gt;HomePageModule</title>
<path fill="none" stroke="black" d="M521.89,-84.91C521.89,-84.91 521.89,-103.79 521.89,-103.79"/>
<polygon fill="black" stroke="black" points="518.39,-103.79 521.89,-113.79 525.39,-103.79 518.39,-103.79"/>
</g>
<!-- HomePageRoutingModule -->
<g id="node7" class="node">
<title>HomePageRoutingModule</title>
<polygon fill="#8dd3c7" stroke="black" points="488.1,-84.8 485.1,-88.8 464.1,-88.8 461.1,-84.8 321.9,-84.8 321.9,-48.8 488.1,-48.8 488.1,-84.8"/>
<text text-anchor="middle" x="405" y="-62.6" font-family="Times,serif" font-size="14.00">HomePageRoutingModule</text>
</g>
<!-- HomePageRoutingModule&#45;&gt;HomePageModule -->
<g id="edge5" class="edge">
<title>HomePageRoutingModule&#45;&gt;HomePageModule</title>
<path fill="none" stroke="black" d="M449.28,-84.91C449.28,-84.91 449.28,-103.79 449.28,-103.79"/>
<polygon fill="black" stroke="black" points="445.78,-103.79 449.28,-113.79 452.78,-103.79 445.78,-103.79"/>
</g>
<!-- RetosPage -->
<g id="node8" class="node">
<title>RetosPage</title>
<polygon fill="#ffffb3" stroke="black" points="705.6,-84.8 630.4,-84.8 630.4,-48.8 705.6,-48.8 705.6,-84.8"/>
<text text-anchor="middle" x="668" y="-62.6" font-family="Times,serif" font-size="14.00">RetosPage</text>
</g>
<!-- RetosPageModule -->
<g id="node9" class="node">
<title>RetosPageModule</title>
<polygon fill="#8dd3c7" stroke="black" points="805.16,-149.8 802.16,-153.8 781.16,-153.8 778.16,-149.8 686.84,-149.8 686.84,-113.8 805.16,-113.8 805.16,-149.8"/>
<text text-anchor="middle" x="746" y="-127.6" font-family="Times,serif" font-size="14.00">RetosPageModule</text>
</g>
<!-- RetosPage&#45;&gt;RetosPageModule -->
<g id="edge6" class="edge">
<title>RetosPage&#45;&gt;RetosPageModule</title>
<path fill="none" stroke="black" d="M696.11,-84.91C696.11,-84.91 696.11,-103.79 696.11,-103.79"/>
<polygon fill="black" stroke="black" points="692.61,-103.79 696.11,-113.79 699.61,-103.79 692.61,-103.79"/>
</g>
<!-- RetosPageRoutingModule -->
<g id="node10" class="node">
<title>RetosPageRoutingModule</title>
<polygon fill="#8dd3c7" stroke="black" points="893.77,-84.8 890.77,-88.8 869.77,-88.8 866.77,-84.8 730.23,-84.8 730.23,-48.8 893.77,-48.8 893.77,-84.8"/>
<text text-anchor="middle" x="812" y="-62.6" font-family="Times,serif" font-size="14.00">RetosPageRoutingModule</text>
</g>
<!-- RetosPageRoutingModule&#45;&gt;RetosPageModule -->
<g id="edge7" class="edge">
<title>RetosPageRoutingModule&#45;&gt;RetosPageModule</title>
<path fill="none" stroke="black" d="M767.72,-84.91C767.72,-84.91 767.72,-103.79 767.72,-103.79"/>
<polygon fill="black" stroke="black" points="764.22,-103.79 767.72,-113.79 771.22,-103.79 764.22,-103.79"/>
</g>
</g>
</svg>
