<?xml version="1.0" encoding="UTF-8" standalone="no"?>
<!DOCTYPE svg PUBLIC "-//W3C//DTD SVG 1.1//EN"
 "http://www.w3.org/Graphics/SVG/1.1/DTD/svg11.dtd">
<!-- Generated by graphviz version 5.0.0 (20220707.1540)
 -->
<!-- Title: dependencies Pages: 1 -->
<svg width="4553pt" height="247pt"
 viewBox="0.00 0.00 4553.00 246.80" xmlns="http://www.w3.org/2000/svg" xmlns:xlink="http://www.w3.org/1999/xlink">
<g id="graph0" class="graph" transform="scale(1 1) rotate(0) translate(4 242.8)">
<title>dependencies</title>
<polygon fill="white" stroke="transparent" points="-4,4 -4,-242.8 4549,-242.8 4549,4 -4,4"/>
<text text-anchor="middle" x="2272.5" y="-8.2" font-family="sans-serif" font-size="14.00">dependencies</text>
<g id="clust1" class="cluster">
<title>cluster_AboutPageModule</title>
<polygon fill="none" stroke="black" stroke-dasharray="1,5" points="8,-32.8 8,-157.8 308,-157.8 308,-32.8 8,-32.8"/>
</g>
<g id="clust2" class="cluster">
<title>cluster_AboutPageModule_declarations</title>
<polygon fill="none" stroke="black" points="206,-40.8 206,-92.8 300,-92.8 300,-40.8 206,-40.8"/>
</g>
<g id="clust4" class="cluster">
<title>cluster_AboutPageModule_imports</title>
<polygon fill="none" stroke="black" points="16,-40.8 16,-92.8 198,-92.8 198,-40.8 16,-40.8"/>
</g>
<g id="clust121" class="cluster">
<title>cluster_RankingPageModule</title>
<polygon fill="none" stroke="black" stroke-dasharray="1,5" points="4211,-32.8 4211,-157.8 4537,-157.8 4537,-32.8 4211,-32.8"/>
</g>
<g id="clust122" class="cluster">
<title>cluster_RankingPageModule_declarations</title>
<polygon fill="none" stroke="black" points="4423,-40.8 4423,-92.8 4529,-92.8 4529,-40.8 4423,-40.8"/>
</g>
<g id="clust124" class="cluster">
<title>cluster_RankingPageModule_imports</title>
<polygon fill="none" stroke="black" points="4219,-40.8 4219,-92.8 4415,-92.8 4415,-40.8 4219,-40.8"/>
</g>
<g id="clust82" class="cluster">
<title>cluster_MisRetosPageModule</title>
<polygon fill="none" stroke="black" stroke-dasharray="1,5" points="3209,-32.8 3209,-157.8 3547,-157.8 3547,-32.8 3209,-32.8"/>
</g>
<g id="clust83" class="cluster">
<title>cluster_MisRetosPageModule_declarations</title>
<polygon fill="none" stroke="black" points="3427,-40.8 3427,-92.8 3539,-92.8 3539,-40.8 3427,-40.8"/>
</g>
<g id="clust85" class="cluster">
<title>cluster_MisRetosPageModule_imports</title>
<polygon fill="none" stroke="black" points="3217,-40.8 3217,-92.8 3419,-92.8 3419,-40.8 3217,-40.8"/>
</g>
<g id="clust40" class="cluster">
<title>cluster_ComponentsModule</title>
<polygon fill="none" stroke="black" stroke-dasharray="1,5" points="1118,-32.8 1118,-230.8 2549,-230.8 2549,-32.8 1118,-32.8"/>
</g>
<g id="clust41" class="cluster">
<title>cluster_ComponentsModule_declarations</title>
<polygon fill="none" stroke="black" points="1126,-40.8 1126,-92.8 2541,-92.8 2541,-40.8 1126,-40.8"/>
</g>
<g id="clust53" class="cluster">
<title>cluster_ComponentsModule_exports</title>
<polygon fill="none" stroke="black" points="1179,-170.8 1179,-222.8 2488,-222.8 2488,-170.8 1179,-170.8"/>
</g>
<g id="clust27" class="cluster">
<title>cluster_AppModule</title>
<polygon fill="none" stroke="black" stroke-dasharray="1,5" points="632,-32.8 632,-230.8 1110,-230.8 1110,-32.8 632,-32.8"/>
</g>
<g id="clust28" class="cluster">
<title>cluster_AppModule_declarations</title>
<polygon fill="none" stroke="black" points="980,-40.8 980,-92.8 1102,-92.8 1102,-40.8 980,-40.8"/>
</g>
<g id="clust30" class="cluster">
<title>cluster_AppModule_imports</title>
<polygon fill="none" stroke="black" points="828,-40.8 828,-92.8 972,-92.8 972,-40.8 828,-40.8"/>
</g>
<g id="clust33" class="cluster">
<title>cluster_AppModule_providers</title>
<polygon fill="none" stroke="black" points="640,-40.8 640,-92.8 820,-92.8 820,-40.8 640,-40.8"/>
</g>
<g id="clust32" class="cluster">
<title>cluster_AppModule_bootstrap</title>
<polygon fill="none" stroke="black" points="838,-170.8 838,-222.8 962,-222.8 962,-170.8 838,-170.8"/>
</g>
<g id="clust56" class="cluster">
<title>cluster_FavoritosPageModule</title>
<polygon fill="none" stroke="black" stroke-dasharray="1,5" points="2557,-32.8 2557,-157.8 2893,-157.8 2893,-32.8 2557,-32.8"/>
</g>
<g id="clust59" class="cluster">
<title>cluster_FavoritosPageModule_imports</title>
<polygon fill="none" stroke="black" points="2685,-40.8 2685,-92.8 2885,-92.8 2885,-40.8 2685,-40.8"/>
</g>
<g id="clust57" class="cluster">
<title>cluster_FavoritosPageModule_declarations</title>
<polygon fill="none" stroke="black" points="2565,-40.8 2565,-92.8 2677,-92.8 2677,-40.8 2565,-40.8"/>
</g>
<g id="clust69" class="cluster">
<title>cluster_HomePageModule</title>
<polygon fill="none" stroke="black" stroke-dasharray="1,5" points="2901,-32.8 2901,-157.8 3201,-157.8 3201,-32.8 2901,-32.8"/>
</g>
<g id="clust70" class="cluster">
<title>cluster_HomePageModule_declarations</title>
<polygon fill="none" stroke="black" points="3099,-40.8 3099,-92.8 3193,-92.8 3193,-40.8 3099,-40.8"/>
</g>
<g id="clust72" class="cluster">
<title>cluster_HomePageModule_imports</title>
<polygon fill="none" stroke="black" points="2909,-40.8 2909,-92.8 3091,-92.8 3091,-40.8 2909,-40.8"/>
</g>
<g id="clust14" class="cluster">
<title>cluster_AdminPageModule</title>
<polygon fill="none" stroke="black" stroke-dasharray="1,5" points="316,-32.8 316,-157.8 624,-157.8 624,-32.8 316,-32.8"/>
</g>
<g id="clust17" class="cluster">
<title>cluster_AdminPageModule_imports</title>
<polygon fill="none" stroke="black" points="430,-40.8 430,-92.8 616,-92.8 616,-40.8 430,-40.8"/>
</g>
<g id="clust15" class="cluster">
<title>cluster_AdminPageModule_declarations</title>
<polygon fill="none" stroke="black" points="324,-40.8 324,-92.8 422,-92.8 422,-40.8 324,-40.8"/>
</g>
<g id="clust95" class="cluster">
<title>cluster_NewsPagePageModule</title>
<polygon fill="none" stroke="black" stroke-dasharray="1,5" points="3555,-32.8 3555,-157.8 3903,-157.8 3903,-32.8 3555,-32.8"/>
</g>
<g id="clust98" class="cluster">
<title>cluster_NewsPagePageModule_imports</title>
<polygon fill="none" stroke="black" points="3689,-40.8 3689,-92.8 3895,-92.8 3895,-40.8 3689,-40.8"/>
</g>
<g id="clust96" class="cluster">
<title>cluster_NewsPagePageModule_declarations</title>
<polygon fill="none" stroke="black" points="3563,-40.8 3563,-92.8 3681,-92.8 3681,-40.8 3563,-40.8"/>
</g>
<g id="clust108" class="cluster">
<title>cluster_PerfilPageModule</title>
<polygon fill="none" stroke="black" stroke-dasharray="1,5" points="3911,-32.8 3911,-157.8 4203,-157.8 4203,-32.8 3911,-32.8"/>
</g>
<g id="clust109" class="cluster">
<title>cluster_PerfilPageModule_declarations</title>
<polygon fill="none" stroke="black" points="4105,-40.8 4105,-92.8 4195,-92.8 4195,-40.8 4105,-40.8"/>
</g>
<g id="clust111" class="cluster">
<title>cluster_PerfilPageModule_imports</title>
<polygon fill="none" stroke="black" points="3919,-40.8 3919,-92.8 4097,-92.8 4097,-40.8 3919,-40.8"/>
</g>
<!-- AboutPage -->
<g id="node1" class="node">
<title>AboutPage</title>
<polygon fill="#ffffb3" stroke="black" points="292.21,-84.8 213.79,-84.8 213.79,-48.8 292.21,-48.8 292.21,-84.8"/>
<text text-anchor="middle" x="253" y="-62.6" font-family="Times,serif" font-size="14.00">AboutPage</text>
</g>
<!-- AboutPageModule -->
<g id="node2" class="node">
<title>AboutPageModule</title>
<polygon fill="#8dd3c7" stroke="black" points="233.77,-149.8 230.77,-153.8 209.77,-153.8 206.77,-149.8 112.23,-149.8 112.23,-113.8 233.77,-113.8 233.77,-149.8"/>
<text text-anchor="middle" x="173" y="-127.6" font-family="Times,serif" font-size="14.00">AboutPageModule</text>
</g>
<!-- AboutPage&#45;&gt;AboutPageModule -->
<g id="edge1" class="edge">
<title>AboutPage&#45;&gt;AboutPageModule</title>
<path fill="none" stroke="black" d="M223.89,-84.91C223.89,-84.91 223.89,-103.79 223.89,-103.79"/>
<polygon fill="black" stroke="black" points="220.39,-103.79 223.89,-113.79 227.39,-103.79 220.39,-103.79"/>
</g>
<!-- AboutPageRoutingModule -->
<g id="node3" class="node">
<title>AboutPageRoutingModule</title>
<polygon fill="#8dd3c7" stroke="black" points="190.38,-84.8 187.38,-88.8 166.38,-88.8 163.38,-84.8 23.62,-84.8 23.62,-48.8 190.38,-48.8 190.38,-84.8"/>
<text text-anchor="middle" x="107" y="-62.6" font-family="Times,serif" font-size="14.00">AboutPageRoutingModule</text>
</g>
<!-- AboutPageRoutingModule&#45;&gt;AboutPageModule -->
<g id="edge2" class="edge">
<title>AboutPageRoutingModule&#45;&gt;AboutPageModule</title>
<path fill="none" stroke="black" d="M151.28,-84.91C151.28,-84.91 151.28,-103.79 151.28,-103.79"/>
<polygon fill="black" stroke="black" points="147.78,-103.79 151.28,-113.79 154.78,-103.79 147.78,-103.79"/>
</g>
<!-- AdminPage -->
<g id="node4" class="node">
<title>AdminPage</title>
<polygon fill="#ffffb3" stroke="black" points="414.1,-84.8 331.9,-84.8 331.9,-48.8 414.1,-48.8 414.1,-84.8"/>
<text text-anchor="middle" x="373" y="-62.6" font-family="Times,serif" font-size="14.00">AdminPage</text>
</g>
<!-- AdminPageModule -->
<g id="node5" class="node">
<title>AdminPageModule</title>
<polygon fill="#8dd3c7" stroke="black" points="517.66,-149.8 514.66,-153.8 493.66,-153.8 490.66,-149.8 392.34,-149.8 392.34,-113.8 517.66,-113.8 517.66,-149.8"/>
<text text-anchor="middle" x="455" y="-127.6" font-family="Times,serif" font-size="14.00">AdminPageModule</text>
</g>
<!-- AdminPage&#45;&gt;AdminPageModule -->
<g id="edge3" class="edge">
<title>AdminPage&#45;&gt;AdminPageModule</title>
<path fill="none" stroke="black" d="M403.11,-84.91C403.11,-84.91 403.11,-103.79 403.11,-103.79"/>
<polygon fill="black" stroke="black" points="399.61,-103.79 403.11,-113.79 406.61,-103.79 399.61,-103.79"/>
</g>
<!-- AdminPageRoutingModule -->
<g id="node6" class="node">
<title>AdminPageRoutingModule</title>
<polygon fill="#8dd3c7" stroke="black" points="608.27,-84.8 605.27,-88.8 584.27,-88.8 581.27,-84.8 437.73,-84.8 437.73,-48.8 608.27,-48.8 608.27,-84.8"/>
<text text-anchor="middle" x="523" y="-62.6" font-family="Times,serif" font-size="14.00">AdminPageRoutingModule</text>
</g>
<!-- AdminPageRoutingModule&#45;&gt;AdminPageModule -->
<g id="edge4" class="edge">
<title>AdminPageRoutingModule&#45;&gt;AdminPageModule</title>
<path fill="none" stroke="black" d="M477.72,-84.91C477.72,-84.91 477.72,-103.79 477.72,-103.79"/>
<polygon fill="black" stroke="black" points="474.22,-103.79 477.72,-113.79 481.22,-103.79 474.22,-103.79"/>
</g>
<!-- AppComponent -->
<g id="node7" class="node">
<title>AppComponent</title>
<polygon fill="#ffffb3" stroke="black" points="1093.94,-84.8 988.06,-84.8 988.06,-48.8 1093.94,-48.8 1093.94,-84.8"/>
<text text-anchor="middle" x="1041" y="-62.6" font-family="Times,serif" font-size="14.00">AppComponent</text>
</g>
<!-- AppModule -->
<g id="node8" class="node">
<title>AppModule</title>
<polygon fill="#8dd3c7" stroke="black" points="941.66,-149.8 938.66,-153.8 917.66,-153.8 914.66,-149.8 858.34,-149.8 858.34,-113.8 941.66,-113.8 941.66,-149.8"/>
<text text-anchor="middle" x="900" y="-127.6" font-family="Times,serif" font-size="14.00">AppModule</text>
</g>
<!-- AppComponent&#45;&gt;AppModule -->
<g id="edge5" class="edge">
<title>AppComponent&#45;&gt;AppModule</title>
<path fill="none" stroke="black" d="M1041,-84.95C1041,-108.56 1041,-146.8 1041,-146.8 1041,-146.8 951.92,-146.8 951.92,-146.8"/>
<polygon fill="black" stroke="black" points="951.92,-143.3 941.92,-146.8 951.92,-150.3 951.92,-143.3"/>
</g>
<!-- AppComponent  -->
<g id="node10" class="node">
<title>AppComponent </title>
<polygon fill="#80b1d3" stroke="black" points="954.44,-214.8 845.56,-214.8 845.56,-178.8 954.44,-178.8 954.44,-214.8"/>
<text text-anchor="middle" x="900" y="-192.6" font-family="Times,serif" font-size="14.00">AppComponent </text>
</g>
<!-- AppModule&#45;&gt;AppComponent  -->
<g id="edge7" class="edge">
<title>AppModule&#45;&gt;AppComponent </title>
<path fill="none" stroke="black" stroke-dasharray="1,5" d="M900,-149.91C900,-149.91 900,-168.79 900,-168.79"/>
<polygon fill="black" stroke="black" points="896.5,-168.79 900,-178.79 903.5,-168.79 896.5,-168.79"/>
</g>
<!-- AppRoutingModule -->
<g id="node9" class="node">
<title>AppRoutingModule</title>
<polygon fill="#8dd3c7" stroke="black" points="964.28,-84.8 961.28,-88.8 940.28,-88.8 937.28,-84.8 835.72,-84.8 835.72,-48.8 964.28,-48.8 964.28,-84.8"/>
<text text-anchor="middle" x="900" y="-62.6" font-family="Times,serif" font-size="14.00">AppRoutingModule</text>
</g>
<!-- AppRoutingModule&#45;&gt;AppModule -->
<g id="edge6" class="edge">
<title>AppRoutingModule&#45;&gt;AppModule</title>
<path fill="none" stroke="black" d="M900,-84.91C900,-84.91 900,-103.79 900,-103.79"/>
<polygon fill="black" stroke="black" points="896.5,-103.79 900,-113.79 903.5,-103.79 896.5,-103.79"/>
</g>
<!-- InterceptorService -->
<g id="node11" class="node">
<title>InterceptorService</title>
<ellipse fill="#fdb462" stroke="black" cx="730" cy="-66.8" rx="82.2" ry="18"/>
<text text-anchor="middle" x="730" y="-62.6" font-family="Times,serif" font-size="14.00">InterceptorService</text>
</g>
<!-- InterceptorService&#45;&gt;AppModule -->
<g id="edge8" class="edge">
<title>InterceptorService&#45;&gt;AppModule</title>
<path fill="none" stroke="black" d="M730,-84.91C730,-104.14 730,-131.8 730,-131.8 730,-131.8 847.98,-131.8 847.98,-131.8"/>
<polygon fill="black" stroke="black" points="847.98,-135.3 857.98,-131.8 847.98,-128.3 847.98,-135.3"/>
</g>
<!-- FabLoginComponent -->
<g id="node12" class="node">
<title>FabLoginComponent</title>
<polygon fill="#ffffb3" stroke="black" points="2532.77,-84.8 2397.23,-84.8 2397.23,-48.8 2532.77,-48.8 2532.77,-84.8"/>
<text text-anchor="middle" x="2465" y="-62.6" font-family="Times,serif" font-size="14.00">FabLoginComponent</text>
</g>
<!-- ComponentsModule -->
<g id="node22" class="node">
<title>ComponentsModule</title>
<polygon fill="#8dd3c7" stroke="black" points="1897.33,-149.8 1894.33,-153.8 1873.33,-153.8 1870.33,-149.8 1766.67,-149.8 1766.67,-113.8 1897.33,-113.8 1897.33,-149.8"/>
<text text-anchor="middle" x="1832" y="-127.6" font-family="Times,serif" font-size="14.00">ComponentsModule</text>
</g>
<!-- FabLoginComponent&#45;&gt;ComponentsModule -->
<g id="edge9" class="edge">
<title>FabLoginComponent&#45;&gt;ComponentsModule</title>
<path fill="none" stroke="black" d="M2438.38,-85.02C2438.38,-103.63 2438.38,-129.8 2438.38,-129.8 2438.38,-129.8 1907.18,-129.8 1907.18,-129.8"/>
<polygon fill="black" stroke="black" points="1907.18,-126.3 1897.18,-129.8 1907.18,-133.3 1907.18,-126.3"/>
</g>
<!-- HeaderComponent -->
<g id="node13" class="node">
<title>HeaderComponent</title>
<polygon fill="#ffffb3" stroke="black" points="2378.75,-84.8 2257.25,-84.8 2257.25,-48.8 2378.75,-48.8 2378.75,-84.8"/>
<text text-anchor="middle" x="2318" y="-62.6" font-family="Times,serif" font-size="14.00">HeaderComponent</text>
</g>
<!-- HeaderComponent&#45;&gt;ComponentsModule -->
<g id="edge10" class="edge">
<title>HeaderComponent&#45;&gt;ComponentsModule</title>
<path fill="none" stroke="black" d="M2289.88,-84.82C2289.88,-102.17 2289.88,-125.8 2289.88,-125.8 2289.88,-125.8 1907.6,-125.8 1907.6,-125.8"/>
<polygon fill="black" stroke="black" points="1907.6,-122.3 1897.6,-125.8 1907.6,-129.3 1907.6,-122.3"/>
</g>
<!-- InfoRetoComponent -->
<g id="node14" class="node">
<title>InfoRetoComponent</title>
<polygon fill="#ffffb3" stroke="black" points="2239.6,-84.8 2108.4,-84.8 2108.4,-48.8 2239.6,-48.8 2239.6,-84.8"/>
<text text-anchor="middle" x="2174" y="-62.6" font-family="Times,serif" font-size="14.00">InfoRetoComponent</text>
</g>
<!-- InfoRetoComponent&#45;&gt;ComponentsModule -->
<g id="edge11" class="edge">
<title>InfoRetoComponent&#45;&gt;ComponentsModule</title>
<path fill="none" stroke="black" d="M2143.88,-84.81C2143.88,-100.85 2143.88,-121.8 2143.88,-121.8 2143.88,-121.8 1907.38,-121.8 1907.38,-121.8"/>
<polygon fill="black" stroke="black" points="1907.38,-118.3 1897.38,-121.8 1907.38,-125.3 1907.38,-118.3"/>
</g>
<!-- LoginComponent -->
<g id="node15" class="node">
<title>LoginComponent</title>
<polygon fill="#ffffb3" stroke="black" points="2090.27,-84.8 1975.73,-84.8 1975.73,-48.8 2090.27,-48.8 2090.27,-84.8"/>
<text text-anchor="middle" x="2033" y="-62.6" font-family="Times,serif" font-size="14.00">LoginComponent</text>
</g>
<!-- LoginComponent&#45;&gt;ComponentsModule -->
<g id="edge12" class="edge">
<title>LoginComponent&#45;&gt;ComponentsModule</title>
<path fill="none" stroke="black" d="M2001.38,-84.92C2001.38,-99.58 2001.38,-117.8 2001.38,-117.8 2001.38,-117.8 1907.48,-117.8 1907.48,-117.8"/>
<polygon fill="black" stroke="black" points="1907.48,-114.3 1897.48,-117.8 1907.48,-121.3 1907.48,-114.3"/>
</g>
<!-- MenuComponent -->
<g id="node16" class="node">
<title>MenuComponent</title>
<polygon fill="#ffffb3" stroke="black" points="1957.99,-84.8 1844.01,-84.8 1844.01,-48.8 1957.99,-48.8 1957.99,-84.8"/>
<text text-anchor="middle" x="1901" y="-62.6" font-family="Times,serif" font-size="14.00">MenuComponent</text>
</g>
<!-- MenuComponent&#45;&gt;ComponentsModule -->
<g id="edge13" class="edge">
<title>MenuComponent&#45;&gt;ComponentsModule</title>
<path fill="none" stroke="black" d="M1870.58,-84.91C1870.58,-84.91 1870.58,-103.79 1870.58,-103.79"/>
<polygon fill="black" stroke="black" points="1867.08,-103.79 1870.58,-113.79 1874.08,-103.79 1867.08,-103.79"/>
</g>
<!-- NewRetoComponent -->
<g id="node17" class="node">
<title>NewRetoComponent</title>
<polygon fill="#ffffb3" stroke="black" points="1826.21,-84.8 1691.79,-84.8 1691.79,-48.8 1826.21,-48.8 1826.21,-84.8"/>
<text text-anchor="middle" x="1759" y="-62.6" font-family="Times,serif" font-size="14.00">NewRetoComponent</text>
</g>
<!-- NewRetoComponent&#45;&gt;ComponentsModule -->
<g id="edge14" class="edge">
<title>NewRetoComponent&#45;&gt;ComponentsModule</title>
<path fill="none" stroke="black" d="M1796.47,-84.91C1796.47,-84.91 1796.47,-103.79 1796.47,-103.79"/>
<polygon fill="black" stroke="black" points="1792.97,-103.79 1796.47,-113.79 1799.97,-103.79 1792.97,-103.79"/>
</g>
<!-- NoticiaComponent -->
<g id="node18" class="node">
<title>NoticiaComponent</title>
<polygon fill="#ffffb3" stroke="black" points="1674.04,-84.8 1551.96,-84.8 1551.96,-48.8 1674.04,-48.8 1674.04,-84.8"/>
<text text-anchor="middle" x="1613" y="-62.6" font-family="Times,serif" font-size="14.00">NoticiaComponent</text>
</g>
<!-- NoticiaComponent&#45;&gt;ComponentsModule -->
<g id="edge15" class="edge">
<title>NoticiaComponent&#45;&gt;ComponentsModule</title>
<path fill="none" stroke="black" d="M1645.71,-84.92C1645.71,-99.58 1645.71,-117.8 1645.71,-117.8 1645.71,-117.8 1756.58,-117.8 1756.58,-117.8"/>
<polygon fill="black" stroke="black" points="1756.58,-121.3 1766.58,-117.8 1756.58,-114.3 1756.58,-121.3"/>
</g>
<!-- NoticiasComponent -->
<g id="node19" class="node">
<title>NoticiasComponent</title>
<polygon fill="#ffffb3" stroke="black" points="1533.99,-84.8 1406.01,-84.8 1406.01,-48.8 1533.99,-48.8 1533.99,-84.8"/>
<text text-anchor="middle" x="1470" y="-62.6" font-family="Times,serif" font-size="14.00">NoticiasComponent</text>
</g>
<!-- NoticiasComponent&#45;&gt;ComponentsModule -->
<g id="edge16" class="edge">
<title>NoticiasComponent&#45;&gt;ComponentsModule</title>
<path fill="none" stroke="black" d="M1500.62,-84.81C1500.62,-100.85 1500.62,-121.8 1500.62,-121.8 1500.62,-121.8 1756.53,-121.8 1756.53,-121.8"/>
<polygon fill="black" stroke="black" points="1756.53,-125.3 1766.53,-121.8 1756.53,-118.3 1756.53,-125.3"/>
</g>
<!-- RegistroComponent -->
<g id="node20" class="node">
<title>RegistroComponent</title>
<polygon fill="#ffffb3" stroke="black" points="1388.27,-84.8 1259.73,-84.8 1259.73,-48.8 1388.27,-48.8 1388.27,-84.8"/>
<text text-anchor="middle" x="1324" y="-62.6" font-family="Times,serif" font-size="14.00">RegistroComponent</text>
</g>
<!-- RegistroComponent&#45;&gt;ComponentsModule -->
<g id="edge17" class="edge">
<title>RegistroComponent&#45;&gt;ComponentsModule</title>
<path fill="none" stroke="black" d="M1352.62,-84.83C1352.62,-101.86 1352.62,-124.8 1352.62,-124.8 1352.62,-124.8 1756.6,-124.8 1756.6,-124.8"/>
<polygon fill="black" stroke="black" points="1756.6,-128.3 1766.6,-124.8 1756.6,-121.3 1756.6,-128.3"/>
</g>
<!-- RetoComponent -->
<g id="node21" class="node">
<title>RetoComponent</title>
<polygon fill="#ffffb3" stroke="black" points="1241.77,-84.8 1134.23,-84.8 1134.23,-48.8 1241.77,-48.8 1241.77,-84.8"/>
<text text-anchor="middle" x="1188" y="-62.6" font-family="Times,serif" font-size="14.00">RetoComponent</text>
</g>
<!-- RetoComponent&#45;&gt;ComponentsModule -->
<g id="edge18" class="edge">
<title>RetoComponent&#45;&gt;ComponentsModule</title>
<path fill="none" stroke="black" d="M1214.62,-85.07C1214.62,-103.36 1214.62,-128.8 1214.62,-128.8 1214.62,-128.8 1756.81,-128.8 1756.81,-128.8"/>
<polygon fill="black" stroke="black" points="1756.81,-132.3 1766.81,-128.8 1756.81,-125.3 1756.81,-132.3"/>
</g>
<!-- FabLoginComponent  -->
<g id="node23" class="node">
<title>FabLoginComponent </title>
<polygon fill="#fb8072" stroke="black" points="2479.77,-214.8 2340.23,-214.8 2340.23,-178.8 2479.77,-178.8 2479.77,-214.8"/>
<text text-anchor="middle" x="2410" y="-192.6" font-family="Times,serif" font-size="14.00">FabLoginComponent </text>
</g>
<!-- ComponentsModule&#45;&gt;FabLoginComponent  -->
<g id="edge19" class="edge">
<title>ComponentsModule&#45;&gt;FabLoginComponent </title>
<path fill="none" stroke="black" stroke-dasharray="5,2" d="M1897.23,-133.8C2038.39,-133.8 2359.62,-133.8 2359.62,-133.8 2359.62,-133.8 2359.62,-168.58 2359.62,-168.58"/>
<polygon fill="black" stroke="black" points="2356.12,-168.58 2359.62,-178.58 2363.12,-168.58 2356.12,-168.58"/>
</g>
<!-- HeaderComponent  -->
<g id="node24" class="node">
<title>HeaderComponent </title>
<polygon fill="#fb8072" stroke="black" points="2322.75,-214.8 2197.25,-214.8 2197.25,-178.8 2322.75,-178.8 2322.75,-214.8"/>
<text text-anchor="middle" x="2260" y="-192.6" font-family="Times,serif" font-size="14.00">HeaderComponent </text>
</g>
<!-- ComponentsModule&#45;&gt;HeaderComponent  -->
<g id="edge20" class="edge">
<title>ComponentsModule&#45;&gt;HeaderComponent </title>
<path fill="none" stroke="black" stroke-dasharray="5,2" d="M1897.56,-137.8C2007.82,-137.8 2218.46,-137.8 2218.46,-137.8 2218.46,-137.8 2218.46,-168.78 2218.46,-168.78"/>
<polygon fill="black" stroke="black" points="2214.96,-168.78 2218.46,-178.78 2221.96,-168.78 2214.96,-168.78"/>
</g>
<!-- InfoRetoComponent  -->
<g id="node25" class="node">
<title>InfoRetoComponent </title>
<polygon fill="#fb8072" stroke="black" points="2179.1,-214.8 2044.9,-214.8 2044.9,-178.8 2179.1,-178.8 2179.1,-214.8"/>
<text text-anchor="middle" x="2112" y="-192.6" font-family="Times,serif" font-size="14.00">InfoRetoComponent </text>
</g>
<!-- ComponentsModule&#45;&gt;InfoRetoComponent  -->
<g id="edge21" class="edge">
<title>ComponentsModule&#45;&gt;InfoRetoComponent </title>
<path fill="none" stroke="black" stroke-dasharray="5,2" d="M1897.3,-141.8C1967.01,-141.8 2067.54,-141.8 2067.54,-141.8 2067.54,-141.8 2067.54,-168.79 2067.54,-168.79"/>
<polygon fill="black" stroke="black" points="2064.04,-168.79 2067.54,-178.79 2071.04,-168.79 2064.04,-168.79"/>
</g>
<!-- LoginComponent  -->
<g id="node26" class="node">
<title>LoginComponent </title>
<polygon fill="#fb8072" stroke="black" points="2027.27,-214.8 1908.73,-214.8 1908.73,-178.8 2027.27,-178.8 2027.27,-214.8"/>
<text text-anchor="middle" x="1968" y="-192.6" font-family="Times,serif" font-size="14.00">LoginComponent </text>
</g>
<!-- ComponentsModule&#45;&gt;LoginComponent  -->
<g id="edge22" class="edge">
<title>ComponentsModule&#45;&gt;LoginComponent </title>
<path fill="none" stroke="black" stroke-dasharray="5,2" d="M1897.38,-145.8C1917.01,-145.8 1933.43,-145.8 1933.43,-145.8 1933.43,-145.8 1933.43,-168.68 1933.43,-168.68"/>
<polygon fill="black" stroke="black" points="1929.93,-168.68 1933.43,-178.68 1936.93,-168.68 1929.93,-168.68"/>
</g>
<!-- MenuComponent  -->
<g id="node27" class="node">
<title>MenuComponent </title>
<polygon fill="#fb8072" stroke="black" points="1890.99,-214.8 1773.01,-214.8 1773.01,-178.8 1890.99,-178.8 1890.99,-214.8"/>
<text text-anchor="middle" x="1832" y="-192.6" font-family="Times,serif" font-size="14.00">MenuComponent </text>
</g>
<!-- ComponentsModule&#45;&gt;MenuComponent  -->
<g id="edge23" class="edge">
<title>ComponentsModule&#45;&gt;MenuComponent </title>
<path fill="none" stroke="black" stroke-dasharray="5,2" d="M1832,-149.91C1832,-149.91 1832,-168.79 1832,-168.79"/>
<polygon fill="black" stroke="black" points="1828.5,-168.79 1832,-178.79 1835.5,-168.79 1828.5,-168.79"/>
</g>
<!-- NewRetoComponent  -->
<g id="node28" class="node">
<title>NewRetoComponent </title>
<polygon fill="#fb8072" stroke="black" points="1754.71,-214.8 1617.29,-214.8 1617.29,-178.8 1754.71,-178.8 1754.71,-214.8"/>
<text text-anchor="middle" x="1686" y="-192.6" font-family="Times,serif" font-size="14.00">NewRetoComponent </text>
</g>
<!-- ComponentsModule&#45;&gt;NewRetoComponent  -->
<g id="edge24" class="edge">
<title>ComponentsModule&#45;&gt;NewRetoComponent </title>
<path fill="none" stroke="black" stroke-dasharray="5,2" d="M1766.62,-142.8C1743.61,-142.8 1723.38,-142.8 1723.38,-142.8 1723.38,-142.8 1723.38,-168.52 1723.38,-168.52"/>
<polygon fill="black" stroke="black" points="1719.88,-168.52 1723.38,-178.52 1726.88,-168.52 1719.88,-168.52"/>
</g>
<!-- NoticiasComponent  -->
<g id="node29" class="node">
<title>NoticiasComponent </title>
<polygon fill="#fb8072" stroke="black" points="1598.99,-214.8 1467.01,-214.8 1467.01,-178.8 1598.99,-178.8 1598.99,-214.8"/>
<text text-anchor="middle" x="1533" y="-192.6" font-family="Times,serif" font-size="14.00">NoticiasComponent </text>
</g>
<!-- ComponentsModule&#45;&gt;NoticiasComponent  -->
<g id="edge25" class="edge">
<title>ComponentsModule&#45;&gt;NoticiasComponent </title>
<path fill="none" stroke="black" stroke-dasharray="5,2" d="M1766.54,-139.8C1690.47,-139.8 1575.24,-139.8 1575.24,-139.8 1575.24,-139.8 1575.24,-168.76 1575.24,-168.76"/>
<polygon fill="black" stroke="black" points="1571.74,-168.76 1575.24,-178.76 1578.74,-168.76 1571.74,-168.76"/>
</g>
<!-- RegistroComponent  -->
<g id="node30" class="node">
<title>RegistroComponent </title>
<polygon fill="#fb8072" stroke="black" points="1449.27,-214.8 1316.73,-214.8 1316.73,-178.8 1449.27,-178.8 1449.27,-214.8"/>
<text text-anchor="middle" x="1383" y="-192.6" font-family="Times,serif" font-size="14.00">RegistroComponent </text>
</g>
<!-- ComponentsModule&#45;&gt;RegistroComponent  -->
<g id="edge26" class="edge">
<title>ComponentsModule&#45;&gt;RegistroComponent </title>
<path fill="none" stroke="black" stroke-dasharray="5,2" d="M1766.57,-135.8C1652.11,-135.8 1427.57,-135.8 1427.57,-135.8 1427.57,-135.8 1427.57,-168.5 1427.57,-168.5"/>
<polygon fill="black" stroke="black" points="1424.07,-168.5 1427.57,-178.5 1431.07,-168.5 1424.07,-168.5"/>
</g>
<!-- RetoComponent  -->
<g id="node31" class="node">
<title>RetoComponent </title>
<polygon fill="#fb8072" stroke="black" points="1298.77,-214.8 1187.23,-214.8 1187.23,-178.8 1298.77,-178.8 1298.77,-214.8"/>
<text text-anchor="middle" x="1243" y="-192.6" font-family="Times,serif" font-size="14.00">RetoComponent </text>
</g>
<!-- ComponentsModule&#45;&gt;RetoComponent  -->
<g id="edge27" class="edge">
<title>ComponentsModule&#45;&gt;RetoComponent </title>
<path fill="none" stroke="black" stroke-dasharray="5,2" d="M1766.68,-131.8C1620.38,-131.8 1279.12,-131.8 1279.12,-131.8 1279.12,-131.8 1279.12,-168.69 1279.12,-168.69"/>
<polygon fill="black" stroke="black" points="1275.63,-168.69 1279.12,-178.69 1282.63,-168.69 1275.63,-168.69"/>
</g>
<!-- FavoritosPage -->
<g id="node32" class="node">
<title>FavoritosPage</title>
<polygon fill="#ffffb3" stroke="black" points="2669.1,-84.8 2572.9,-84.8 2572.9,-48.8 2669.1,-48.8 2669.1,-84.8"/>
<text text-anchor="middle" x="2621" y="-62.6" font-family="Times,serif" font-size="14.00">FavoritosPage</text>
</g>
<!-- FavoritosPageModule -->
<g id="node33" class="node">
<title>FavoritosPageModule</title>
<polygon fill="#8dd3c7" stroke="black" points="2779.66,-149.8 2776.66,-153.8 2755.66,-153.8 2752.66,-149.8 2640.34,-149.8 2640.34,-113.8 2779.66,-113.8 2779.66,-149.8"/>
<text text-anchor="middle" x="2710" y="-127.6" font-family="Times,serif" font-size="14.00">FavoritosPageModule</text>
</g>
<!-- FavoritosPage&#45;&gt;FavoritosPageModule -->
<g id="edge28" class="edge">
<title>FavoritosPage&#45;&gt;FavoritosPageModule</title>
<path fill="none" stroke="black" d="M2654.61,-84.91C2654.61,-84.91 2654.61,-103.79 2654.61,-103.79"/>
<polygon fill="black" stroke="black" points="2651.11,-103.79 2654.61,-113.79 2658.11,-103.79 2651.11,-103.79"/>
</g>
<!-- FavoritosPageRoutingModule -->
<g id="node34" class="node">
<title>FavoritosPageRoutingModule</title>
<polygon fill="#8dd3c7" stroke="black" points="2877.27,-84.8 2874.27,-88.8 2853.27,-88.8 2850.27,-84.8 2692.73,-84.8 2692.73,-48.8 2877.27,-48.8 2877.27,-84.8"/>
<text text-anchor="middle" x="2785" y="-62.6" font-family="Times,serif" font-size="14.00">FavoritosPageRoutingModule</text>
</g>
<!-- FavoritosPageRoutingModule&#45;&gt;FavoritosPageModule -->
<g id="edge29" class="edge">
<title>FavoritosPageRoutingModule&#45;&gt;FavoritosPageModule</title>
<path fill="none" stroke="black" d="M2736.22,-84.91C2736.22,-84.91 2736.22,-103.79 2736.22,-103.79"/>
<polygon fill="black" stroke="black" points="2732.72,-103.79 2736.22,-113.79 2739.72,-103.79 2732.72,-103.79"/>
</g>
<!-- HomePage -->
<g id="node35" class="node">
<title>HomePage</title>
<polygon fill="#ffffb3" stroke="black" points="3184.93,-84.8 3107.07,-84.8 3107.07,-48.8 3184.93,-48.8 3184.93,-84.8"/>
<text text-anchor="middle" x="3146" y="-62.6" font-family="Times,serif" font-size="14.00">HomePage</text>
</g>
<!-- HomePageModule -->
<g id="node36" class="node">
<title>HomePageModule</title>
<polygon fill="#8dd3c7" stroke="black" points="3126.48,-149.8 3123.48,-153.8 3102.48,-153.8 3099.48,-149.8 3005.52,-149.8 3005.52,-113.8 3126.48,-113.8 3126.48,-149.8"/>
<text text-anchor="middle" x="3066" y="-127.6" font-family="Times,serif" font-size="14.00">HomePageModule</text>
</g>
<!-- HomePage&#45;&gt;HomePageModule -->
<g id="edge30" class="edge">
<title>HomePage&#45;&gt;HomePageModule</title>
<path fill="none" stroke="black" d="M3116.89,-84.91C3116.89,-84.91 3116.89,-103.79 3116.89,-103.79"/>
<polygon fill="black" stroke="black" points="3113.39,-103.79 3116.89,-113.79 3120.39,-103.79 3113.39,-103.79"/>
</g>
<!-- HomePageRoutingModule -->
<g id="node37" class="node">
<title>HomePageRoutingModule</title>
<polygon fill="#8dd3c7" stroke="black" points="3083.1,-84.8 3080.1,-88.8 3059.1,-88.8 3056.1,-84.8 2916.9,-84.8 2916.9,-48.8 3083.1,-48.8 3083.1,-84.8"/>
<text text-anchor="middle" x="3000" y="-62.6" font-family="Times,serif" font-size="14.00">HomePageRoutingModule</text>
</g>
<!-- HomePageRoutingModule&#45;&gt;HomePageModule -->
<g id="edge31" class="edge">
<title>HomePageRoutingModule&#45;&gt;HomePageModule</title>
<path fill="none" stroke="black" d="M3044.28,-84.91C3044.28,-84.91 3044.28,-103.79 3044.28,-103.79"/>
<polygon fill="black" stroke="black" points="3040.78,-103.79 3044.28,-113.79 3047.78,-103.79 3040.78,-103.79"/>
</g>
<!-- MisRetosPage -->
<g id="node38" class="node">
<title>MisRetosPage</title>
<polygon fill="#ffffb3" stroke="black" points="3531.39,-84.8 3434.61,-84.8 3434.61,-48.8 3531.39,-48.8 3531.39,-84.8"/>
<text text-anchor="middle" x="3483" y="-62.6" font-family="Times,serif" font-size="14.00">MisRetosPage</text>
</g>
<!-- MisRetosPageModule -->
<g id="node39" class="node">
<title>MisRetosPageModule</title>
<polygon fill="#8dd3c7" stroke="black" points="3463.44,-149.8 3460.44,-153.8 3439.44,-153.8 3436.44,-149.8 3322.56,-149.8 3322.56,-113.8 3463.44,-113.8 3463.44,-149.8"/>
<text text-anchor="middle" x="3393" y="-127.6" font-family="Times,serif" font-size="14.00">MisRetosPageModule</text>
</g>
<!-- MisRetosPage&#45;&gt;MisRetosPageModule -->
<g id="edge32" class="edge">
<title>MisRetosPage&#45;&gt;MisRetosPageModule</title>
<path fill="none" stroke="black" d="M3448.89,-84.91C3448.89,-84.91 3448.89,-103.79 3448.89,-103.79"/>
<polygon fill="black" stroke="black" points="3445.39,-103.79 3448.89,-113.79 3452.39,-103.79 3445.39,-103.79"/>
</g>
<!-- MisRetosPageRoutingModule -->
<g id="node40" class="node">
<title>MisRetosPageRoutingModule</title>
<polygon fill="#8dd3c7" stroke="black" points="3410.56,-84.8 3407.56,-88.8 3386.56,-88.8 3383.56,-84.8 3225.44,-84.8 3225.44,-48.8 3410.56,-48.8 3410.56,-84.8"/>
<text text-anchor="middle" x="3318" y="-62.6" font-family="Times,serif" font-size="14.00">MisRetosPageRoutingModule</text>
</g>
<!-- MisRetosPageRoutingModule&#45;&gt;MisRetosPageModule -->
<g id="edge33" class="edge">
<title>MisRetosPageRoutingModule&#45;&gt;MisRetosPageModule</title>
<path fill="none" stroke="black" d="M3366.78,-84.91C3366.78,-84.91 3366.78,-103.79 3366.78,-103.79"/>
<polygon fill="black" stroke="black" points="3363.28,-103.79 3366.78,-113.79 3370.28,-103.79 3363.28,-103.79"/>
</g>
<!-- NewsPagePage -->
<g id="node41" class="node">
<title>NewsPagePage</title>
<polygon fill="#ffffb3" stroke="black" points="3673.31,-84.8 3570.69,-84.8 3570.69,-48.8 3673.31,-48.8 3673.31,-84.8"/>
<text text-anchor="middle" x="3622" y="-62.6" font-family="Times,serif" font-size="14.00">NewsPagePage</text>
</g>
<!-- NewsPagePageModule -->
<g id="node42" class="node">
<title>NewsPagePageModule</title>
<polygon fill="#8dd3c7" stroke="black" points="3786.86,-149.8 3783.86,-153.8 3762.86,-153.8 3759.86,-149.8 3641.14,-149.8 3641.14,-113.8 3786.86,-113.8 3786.86,-149.8"/>
<text text-anchor="middle" x="3714" y="-127.6" font-family="Times,serif" font-size="14.00">NewsPagePageModule</text>
</g>
<!-- NewsPagePage&#45;&gt;NewsPagePageModule -->
<g id="edge34" class="edge">
<title>NewsPagePage&#45;&gt;NewsPagePageModule</title>
<path fill="none" stroke="black" d="M3657.11,-84.91C3657.11,-84.91 3657.11,-103.79 3657.11,-103.79"/>
<polygon fill="black" stroke="black" points="3653.61,-103.79 3657.11,-113.79 3660.61,-103.79 3653.61,-103.79"/>
</g>
<!-- NewsPagePageRoutingModule -->
<g id="node43" class="node">
<title>NewsPagePageRoutingModule</title>
<polygon fill="#8dd3c7" stroke="black" points="3887.48,-84.8 3884.48,-88.8 3863.48,-88.8 3860.48,-84.8 3696.52,-84.8 3696.52,-48.8 3887.48,-48.8 3887.48,-84.8"/>
<text text-anchor="middle" x="3792" y="-62.6" font-family="Times,serif" font-size="14.00">NewsPagePageRoutingModule</text>
</g>
<!-- NewsPagePageRoutingModule&#45;&gt;NewsPagePageModule -->
<g id="edge35" class="edge">
<title>NewsPagePageRoutingModule&#45;&gt;NewsPagePageModule</title>
<path fill="none" stroke="black" d="M3741.72,-84.91C3741.72,-84.91 3741.72,-103.79 3741.72,-103.79"/>
<polygon fill="black" stroke="black" points="3738.22,-103.79 3741.72,-113.79 3745.22,-103.79 3738.22,-103.79"/>
</g>
<!-- PerfilPage -->
<g id="node44" class="node">
<title>PerfilPage</title>
<polygon fill="#ffffb3" stroke="black" points="4187.32,-84.8 4112.68,-84.8 4112.68,-48.8 4187.32,-48.8 4187.32,-84.8"/>
<text text-anchor="middle" x="4150" y="-62.6" font-family="Times,serif" font-size="14.00">PerfilPage</text>
</g>
<!-- PerfilPageModule -->
<g id="node45" class="node">
<title>PerfilPageModule</title>
<polygon fill="#8dd3c7" stroke="black" points="4130.87,-149.8 4127.87,-153.8 4106.87,-153.8 4103.87,-149.8 4013.13,-149.8 4013.13,-113.8 4130.87,-113.8 4130.87,-149.8"/>
<text text-anchor="middle" x="4072" y="-127.6" font-family="Times,serif" font-size="14.00">PerfilPageModule</text>
</g>
<!-- PerfilPage&#45;&gt;PerfilPageModule -->
<g id="edge36" class="edge">
<title>PerfilPage&#45;&gt;PerfilPageModule</title>
<path fill="none" stroke="black" d="M4121.89,-84.91C4121.89,-84.91 4121.89,-103.79 4121.89,-103.79"/>
<polygon fill="black" stroke="black" points="4118.39,-103.79 4121.89,-113.79 4125.39,-103.79 4118.39,-103.79"/>
</g>
<!-- PerfilPageRoutingModule -->
<g id="node46" class="node">
<title>PerfilPageRoutingModule</title>
<polygon fill="#8dd3c7" stroke="black" points="4089.49,-84.8 4086.49,-88.8 4065.49,-88.8 4062.49,-84.8 3926.51,-84.8 3926.51,-48.8 4089.49,-48.8 4089.49,-84.8"/>
<text text-anchor="middle" x="4008" y="-62.6" font-family="Times,serif" font-size="14.00">PerfilPageRoutingModule</text>
</g>
<!-- PerfilPageRoutingModule&#45;&gt;PerfilPageModule -->
<g id="edge37" class="edge">
<title>PerfilPageRoutingModule&#45;&gt;PerfilPageModule</title>
<path fill="none" stroke="black" d="M4051.28,-84.91C4051.28,-84.91 4051.28,-103.79 4051.28,-103.79"/>
<polygon fill="black" stroke="black" points="4047.78,-103.79 4051.28,-113.79 4054.78,-103.79 4047.78,-103.79"/>
</g>
<!-- RankingPage -->
<g id="node47" class="node">
<title>RankingPage</title>
<polygon fill="#ffffb3" stroke="black" points="4521.16,-84.8 4430.84,-84.8 4430.84,-48.8 4521.16,-48.8 4521.16,-84.8"/>
<text text-anchor="middle" x="4476" y="-62.6" font-family="Times,serif" font-size="14.00">RankingPage</text>
</g>
<!-- RankingPageModule -->
<g id="node48" class="node">
<title>RankingPageModule</title>
<polygon fill="#8dd3c7" stroke="black" points="4456.21,-149.8 4453.21,-153.8 4432.21,-153.8 4429.21,-149.8 4321.79,-149.8 4321.79,-113.8 4456.21,-113.8 4456.21,-149.8"/>
<text text-anchor="middle" x="4389" y="-127.6" font-family="Times,serif" font-size="14.00">RankingPageModule</text>
</g>
<!-- RankingPage&#45;&gt;RankingPageModule -->
<g id="edge38" class="edge">
<title>RankingPage&#45;&gt;RankingPageModule</title>
<path fill="none" stroke="black" d="M4443.39,-84.91C4443.39,-84.91 4443.39,-103.79 4443.39,-103.79"/>
<polygon fill="black" stroke="black" points="4439.89,-103.79 4443.39,-113.79 4446.89,-103.79 4439.89,-103.79"/>
</g>
<!-- RankingPageRoutingModule -->
<g id="node49" class="node">
<title>RankingPageRoutingModule</title>
<polygon fill="#8dd3c7" stroke="black" points="4406.82,-84.8 4403.82,-88.8 4382.82,-88.8 4379.82,-84.8 4227.18,-84.8 4227.18,-48.8 4406.82,-48.8 4406.82,-84.8"/>
<text text-anchor="middle" x="4317" y="-62.6" font-family="Times,serif" font-size="14.00">RankingPageRoutingModule</text>
</g>
<!-- RankingPageRoutingModule&#45;&gt;RankingPageModule -->
<g id="edge39" class="edge">
<title>RankingPageRoutingModule&#45;&gt;RankingPageModule</title>
<path fill="none" stroke="black" d="M4364.28,-84.91C4364.28,-84.91 4364.28,-103.79 4364.28,-103.79"/>
<polygon fill="black" stroke="black" points="4360.78,-103.79 4364.28,-113.79 4367.78,-103.79 4360.78,-103.79"/>
</g>
</g>
</svg>
