<?xml version="1.0" encoding="UTF-8" standalone="no"?>
<!DOCTYPE svg PUBLIC "-//W3C//DTD SVG 1.1//EN"
 "http://www.w3.org/Graphics/SVG/1.1/DTD/svg11.dtd">
<!-- Generated by graphviz version 5.0.0 (20220707.1540)
 -->
<!-- Title: dependencies Pages: 1 -->
<svg width="4189pt" height="247pt"
 viewBox="0.00 0.00 4189.00 246.80" xmlns="http://www.w3.org/2000/svg" xmlns:xlink="http://www.w3.org/1999/xlink">
<g id="graph0" class="graph" transform="scale(1 1) rotate(0) translate(4 242.8)">
<title>dependencies</title>
<polygon fill="white" stroke="transparent" points="-4,4 -4,-242.8 4185,-242.8 4185,4 -4,4"/>
<text text-anchor="middle" x="2090.5" y="-8.2" font-family="sans-serif" font-size="14.00">dependencies</text>
<g id="clust40" class="cluster">
<title>cluster_ComponentsModule</title>
<polygon fill="none" stroke="black" stroke-dasharray="1,5" points="930,-32.8 930,-230.8 2209,-230.8 2209,-32.8 930,-32.8"/>
</g>
<g id="clust41" class="cluster">
<title>cluster_ComponentsModule_declarations</title>
<polygon fill="none" stroke="black" points="938,-40.8 938,-92.8 2201,-92.8 2201,-40.8 938,-40.8"/>
</g>
<g id="clust52" class="cluster">
<title>cluster_ComponentsModule_exports</title>
<polygon fill="none" stroke="black" points="994,-170.8 994,-222.8 2146,-222.8 2146,-170.8 994,-170.8"/>
</g>
<g id="clust120" class="cluster">
<title>cluster_RankingPageModule</title>
<polygon fill="none" stroke="black" stroke-dasharray="1,5" points="3847,-32.8 3847,-157.8 4173,-157.8 4173,-32.8 3847,-32.8"/>
</g>
<g id="clust123" class="cluster">
<title>cluster_RankingPageModule_imports</title>
<polygon fill="none" stroke="black" points="3969,-40.8 3969,-92.8 4165,-92.8 4165,-40.8 3969,-40.8"/>
</g>
<g id="clust121" class="cluster">
<title>cluster_RankingPageModule_declarations</title>
<polygon fill="none" stroke="black" points="3855,-40.8 3855,-92.8 3961,-92.8 3961,-40.8 3855,-40.8"/>
</g>
<g id="clust55" class="cluster">
<title>cluster_FavoritosPageModule</title>
<polygon fill="none" stroke="black" stroke-dasharray="1,5" points="2217,-32.8 2217,-157.8 2553,-157.8 2553,-32.8 2217,-32.8"/>
</g>
<g id="clust56" class="cluster">
<title>cluster_FavoritosPageModule_declarations</title>
<polygon fill="none" stroke="black" points="2433,-40.8 2433,-92.8 2545,-92.8 2545,-40.8 2433,-40.8"/>
</g>
<g id="clust58" class="cluster">
<title>cluster_FavoritosPageModule_imports</title>
<polygon fill="none" stroke="black" points="2225,-40.8 2225,-92.8 2425,-92.8 2425,-40.8 2225,-40.8"/>
</g>
<g id="clust81" class="cluster">
<title>cluster_MisRetosPageModule</title>
<polygon fill="none" stroke="black" stroke-dasharray="1,5" points="2869,-32.8 2869,-157.8 3207,-157.8 3207,-32.8 2869,-32.8"/>
</g>
<g id="clust82" class="cluster">
<title>cluster_MisRetosPageModule_declarations</title>
<polygon fill="none" stroke="black" points="3087,-40.8 3087,-92.8 3199,-92.8 3199,-40.8 3087,-40.8"/>
</g>
<g id="clust84" class="cluster">
<title>cluster_MisRetosPageModule_imports</title>
<polygon fill="none" stroke="black" points="2877,-40.8 2877,-92.8 3079,-92.8 3079,-40.8 2877,-40.8"/>
</g>
<g id="clust107" class="cluster">
<title>cluster_PerfilPageModule</title>
<polygon fill="none" stroke="black" stroke-dasharray="1,5" points="3547,-32.8 3547,-157.8 3839,-157.8 3839,-32.8 3547,-32.8"/>
</g>
<g id="clust108" class="cluster">
<title>cluster_PerfilPageModule_declarations</title>
<polygon fill="none" stroke="black" points="3741,-40.8 3741,-92.8 3831,-92.8 3831,-40.8 3741,-40.8"/>
</g>
<g id="clust110" class="cluster">
<title>cluster_PerfilPageModule_imports</title>
<polygon fill="none" stroke="black" points="3555,-40.8 3555,-92.8 3733,-92.8 3733,-40.8 3555,-40.8"/>
</g>
<g id="clust14" class="cluster">
<title>cluster_AdminPageModule</title>
<polygon fill="none" stroke="black" stroke-dasharray="1,5" points="316,-32.8 316,-157.8 624,-157.8 624,-32.8 316,-32.8"/>
</g>
<g id="clust15" class="cluster">
<title>cluster_AdminPageModule_declarations</title>
<polygon fill="none" stroke="black" points="518,-40.8 518,-92.8 616,-92.8 616,-40.8 518,-40.8"/>
</g>
<g id="clust17" class="cluster">
<title>cluster_AdminPageModule_imports</title>
<polygon fill="none" stroke="black" points="324,-40.8 324,-92.8 510,-92.8 510,-40.8 324,-40.8"/>
</g>
<g id="clust94" class="cluster">
<title>cluster_NoticiasPageModule</title>
<polygon fill="none" stroke="black" stroke-dasharray="1,5" points="3215,-32.8 3215,-157.8 3539,-157.8 3539,-32.8 3215,-32.8"/>
</g>
<g id="clust97" class="cluster">
<title>cluster_NoticiasPageModule_imports</title>
<polygon fill="none" stroke="black" points="3337,-40.8 3337,-92.8 3531,-92.8 3531,-40.8 3337,-40.8"/>
</g>
<g id="clust95" class="cluster">
<title>cluster_NoticiasPageModule_declarations</title>
<polygon fill="none" stroke="black" points="3223,-40.8 3223,-92.8 3329,-92.8 3329,-40.8 3223,-40.8"/>
</g>
<g id="clust68" class="cluster">
<title>cluster_HomePageModule</title>
<polygon fill="none" stroke="black" stroke-dasharray="1,5" points="2561,-32.8 2561,-157.8 2861,-157.8 2861,-32.8 2561,-32.8"/>
</g>
<g id="clust71" class="cluster">
<title>cluster_HomePageModule_imports</title>
<polygon fill="none" stroke="black" points="2671,-40.8 2671,-92.8 2853,-92.8 2853,-40.8 2671,-40.8"/>
</g>
<g id="clust69" class="cluster">
<title>cluster_HomePageModule_declarations</title>
<polygon fill="none" stroke="black" points="2569,-40.8 2569,-92.8 2663,-92.8 2663,-40.8 2569,-40.8"/>
</g>
<g id="clust27" class="cluster">
<title>cluster_AppModule</title>
<polygon fill="none" stroke="black" stroke-dasharray="1,5" points="632,-32.8 632,-230.8 922,-230.8 922,-32.8 632,-32.8"/>
</g>
<g id="clust28" class="cluster">
<title>cluster_AppModule_declarations</title>
<polygon fill="none" stroke="black" points="792,-40.8 792,-92.8 914,-92.8 914,-40.8 792,-40.8"/>
</g>
<g id="clust30" class="cluster">
<title>cluster_AppModule_imports</title>
<polygon fill="none" stroke="black" points="640,-40.8 640,-92.8 784,-92.8 784,-40.8 640,-40.8"/>
</g>
<g id="clust32" class="cluster">
<title>cluster_AppModule_bootstrap</title>
<polygon fill="none" stroke="black" points="720,-170.8 720,-222.8 844,-222.8 844,-170.8 720,-170.8"/>
</g>
<g id="clust1" class="cluster">
<title>cluster_AboutPageModule</title>
<polygon fill="none" stroke="black" stroke-dasharray="1,5" points="8,-32.8 8,-157.8 308,-157.8 308,-32.8 8,-32.8"/>
</g>
<g id="clust4" class="cluster">
<title>cluster_AboutPageModule_imports</title>
<polygon fill="none" stroke="black" points="118,-40.8 118,-92.8 300,-92.8 300,-40.8 118,-40.8"/>
</g>
<g id="clust2" class="cluster">
<title>cluster_AboutPageModule_declarations</title>
<polygon fill="none" stroke="black" points="16,-40.8 16,-92.8 110,-92.8 110,-40.8 16,-40.8"/>
</g>
<!-- AboutPage -->
<g id="node1" class="node">
<title>AboutPage</title>
<polygon fill="#ffffb3" stroke="black" points="102.21,-84.8 23.79,-84.8 23.79,-48.8 102.21,-48.8 102.21,-84.8"/>
<text text-anchor="middle" x="63" y="-62.6" font-family="Times,serif" font-size="14.00">AboutPage</text>
</g>
<!-- AboutPageModule -->
<g id="node2" class="node">
<title>AboutPageModule</title>
<polygon fill="#8dd3c7" stroke="black" points="203.77,-149.8 200.77,-153.8 179.77,-153.8 176.77,-149.8 82.23,-149.8 82.23,-113.8 203.77,-113.8 203.77,-149.8"/>
<text text-anchor="middle" x="143" y="-127.6" font-family="Times,serif" font-size="14.00">AboutPageModule</text>
</g>
<!-- AboutPage&#45;&gt;AboutPageModule -->
<g id="edge1" class="edge">
<title>AboutPage&#45;&gt;AboutPageModule</title>
<path fill="none" stroke="black" d="M92.11,-84.91C92.11,-84.91 92.11,-103.79 92.11,-103.79"/>
<polygon fill="black" stroke="black" points="88.61,-103.79 92.11,-113.79 95.61,-103.79 88.61,-103.79"/>
</g>
<!-- AboutPageRoutingModule -->
<g id="node3" class="node">
<title>AboutPageRoutingModule</title>
<polygon fill="#8dd3c7" stroke="black" points="292.38,-84.8 289.38,-88.8 268.38,-88.8 265.38,-84.8 125.62,-84.8 125.62,-48.8 292.38,-48.8 292.38,-84.8"/>
<text text-anchor="middle" x="209" y="-62.6" font-family="Times,serif" font-size="14.00">AboutPageRoutingModule</text>
</g>
<!-- AboutPageRoutingModule&#45;&gt;AboutPageModule -->
<g id="edge2" class="edge">
<title>AboutPageRoutingModule&#45;&gt;AboutPageModule</title>
<path fill="none" stroke="black" d="M164.72,-84.91C164.72,-84.91 164.72,-103.79 164.72,-103.79"/>
<polygon fill="black" stroke="black" points="161.22,-103.79 164.72,-113.79 168.22,-103.79 161.22,-103.79"/>
</g>
<!-- AdminPage -->
<g id="node4" class="node">
<title>AdminPage</title>
<polygon fill="#ffffb3" stroke="black" points="608.1,-84.8 525.9,-84.8 525.9,-48.8 608.1,-48.8 608.1,-84.8"/>
<text text-anchor="middle" x="567" y="-62.6" font-family="Times,serif" font-size="14.00">AdminPage</text>
</g>
<!-- AdminPageModule -->
<g id="node5" class="node">
<title>AdminPageModule</title>
<polygon fill="#8dd3c7" stroke="black" points="547.66,-149.8 544.66,-153.8 523.66,-153.8 520.66,-149.8 422.34,-149.8 422.34,-113.8 547.66,-113.8 547.66,-149.8"/>
<text text-anchor="middle" x="485" y="-127.6" font-family="Times,serif" font-size="14.00">AdminPageModule</text>
</g>
<!-- AdminPage&#45;&gt;AdminPageModule -->
<g id="edge3" class="edge">
<title>AdminPage&#45;&gt;AdminPageModule</title>
<path fill="none" stroke="black" d="M536.89,-84.91C536.89,-84.91 536.89,-103.79 536.89,-103.79"/>
<polygon fill="black" stroke="black" points="533.39,-103.79 536.89,-113.79 540.39,-103.79 533.39,-103.79"/>
</g>
<!-- AdminPageRoutingModule -->
<g id="node6" class="node">
<title>AdminPageRoutingModule</title>
<polygon fill="#8dd3c7" stroke="black" points="502.27,-84.8 499.27,-88.8 478.27,-88.8 475.27,-84.8 331.73,-84.8 331.73,-48.8 502.27,-48.8 502.27,-84.8"/>
<text text-anchor="middle" x="417" y="-62.6" font-family="Times,serif" font-size="14.00">AdminPageRoutingModule</text>
</g>
<!-- AdminPageRoutingModule&#45;&gt;AdminPageModule -->
<g id="edge4" class="edge">
<title>AdminPageRoutingModule&#45;&gt;AdminPageModule</title>
<path fill="none" stroke="black" d="M462.28,-84.91C462.28,-84.91 462.28,-103.79 462.28,-103.79"/>
<polygon fill="black" stroke="black" points="458.78,-103.79 462.28,-113.79 465.78,-103.79 458.78,-103.79"/>
</g>
<!-- AppComponent -->
<g id="node7" class="node">
<title>AppComponent</title>
<polygon fill="#ffffb3" stroke="black" points="905.94,-84.8 800.06,-84.8 800.06,-48.8 905.94,-48.8 905.94,-84.8"/>
<text text-anchor="middle" x="853" y="-62.6" font-family="Times,serif" font-size="14.00">AppComponent</text>
</g>
<!-- AppModule -->
<g id="node8" class="node">
<title>AppModule</title>
<polygon fill="#8dd3c7" stroke="black" points="823.66,-149.8 820.66,-153.8 799.66,-153.8 796.66,-149.8 740.34,-149.8 740.34,-113.8 823.66,-113.8 823.66,-149.8"/>
<text text-anchor="middle" x="782" y="-127.6" font-family="Times,serif" font-size="14.00">AppModule</text>
</g>
<!-- AppComponent&#45;&gt;AppModule -->
<g id="edge5" class="edge">
<title>AppComponent&#45;&gt;AppModule</title>
<path fill="none" stroke="black" d="M812.06,-84.91C812.06,-84.91 812.06,-103.79 812.06,-103.79"/>
<polygon fill="black" stroke="black" points="808.56,-103.79 812.06,-113.79 815.56,-103.79 808.56,-103.79"/>
</g>
<!-- AppComponent  -->
<g id="node10" class="node">
<title>AppComponent </title>
<polygon fill="#80b1d3" stroke="black" points="836.44,-214.8 727.56,-214.8 727.56,-178.8 836.44,-178.8 836.44,-214.8"/>
<text text-anchor="middle" x="782" y="-192.6" font-family="Times,serif" font-size="14.00">AppComponent </text>
</g>
<!-- AppModule&#45;&gt;AppComponent  -->
<g id="edge7" class="edge">
<title>AppModule&#45;&gt;AppComponent </title>
<path fill="none" stroke="black" stroke-dasharray="1,5" d="M782,-149.91C782,-149.91 782,-168.79 782,-168.79"/>
<polygon fill="black" stroke="black" points="778.5,-168.79 782,-178.79 785.5,-168.79 778.5,-168.79"/>
</g>
<!-- AppRoutingModule -->
<g id="node9" class="node">
<title>AppRoutingModule</title>
<polygon fill="#8dd3c7" stroke="black" points="776.28,-84.8 773.28,-88.8 752.28,-88.8 749.28,-84.8 647.72,-84.8 647.72,-48.8 776.28,-48.8 776.28,-84.8"/>
<text text-anchor="middle" x="712" y="-62.6" font-family="Times,serif" font-size="14.00">AppRoutingModule</text>
</g>
<!-- AppRoutingModule&#45;&gt;AppModule -->
<g id="edge6" class="edge">
<title>AppRoutingModule&#45;&gt;AppModule</title>
<path fill="none" stroke="black" d="M758.28,-84.91C758.28,-84.91 758.28,-103.79 758.28,-103.79"/>
<polygon fill="black" stroke="black" points="754.78,-103.79 758.28,-113.79 761.78,-103.79 754.78,-103.79"/>
</g>
<!-- FabLoginComponent -->
<g id="node11" class="node">
<title>FabLoginComponent</title>
<polygon fill="#ffffb3" stroke="black" points="2192.77,-84.8 2057.23,-84.8 2057.23,-48.8 2192.77,-48.8 2192.77,-84.8"/>
<text text-anchor="middle" x="2125" y="-62.6" font-family="Times,serif" font-size="14.00">FabLoginComponent</text>
</g>
<!-- ComponentsModule -->
<g id="node20" class="node">
<title>ComponentsModule</title>
<polygon fill="#8dd3c7" stroke="black" points="1626.33,-149.8 1623.33,-153.8 1602.33,-153.8 1599.33,-149.8 1495.67,-149.8 1495.67,-113.8 1626.33,-113.8 1626.33,-149.8"/>
<text text-anchor="middle" x="1561" y="-127.6" font-family="Times,serif" font-size="14.00">ComponentsModule</text>
</g>
<!-- FabLoginComponent&#45;&gt;ComponentsModule -->
<g id="edge8" class="edge">
<title>FabLoginComponent&#45;&gt;ComponentsModule</title>
<path fill="none" stroke="black" d="M2097.38,-85.02C2097.38,-103.63 2097.38,-129.8 2097.38,-129.8 2097.38,-129.8 1636.23,-129.8 1636.23,-129.8"/>
<polygon fill="black" stroke="black" points="1636.23,-126.3 1626.23,-129.8 1636.23,-133.3 1636.23,-126.3"/>
</g>
<!-- HeaderComponent -->
<g id="node12" class="node">
<title>HeaderComponent</title>
<polygon fill="#ffffb3" stroke="black" points="2038.75,-84.8 1917.25,-84.8 1917.25,-48.8 2038.75,-48.8 2038.75,-84.8"/>
<text text-anchor="middle" x="1978" y="-62.6" font-family="Times,serif" font-size="14.00">HeaderComponent</text>
</g>
<!-- HeaderComponent&#45;&gt;ComponentsModule -->
<g id="edge9" class="edge">
<title>HeaderComponent&#45;&gt;ComponentsModule</title>
<path fill="none" stroke="black" d="M1948.88,-84.83C1948.88,-101.86 1948.88,-124.8 1948.88,-124.8 1948.88,-124.8 1636.36,-124.8 1636.36,-124.8"/>
<polygon fill="black" stroke="black" points="1636.36,-121.3 1626.36,-124.8 1636.36,-128.3 1636.36,-121.3"/>
</g>
<!-- InfoRetoComponent -->
<g id="node13" class="node">
<title>InfoRetoComponent</title>
<polygon fill="#ffffb3" stroke="black" points="1899.6,-84.8 1768.4,-84.8 1768.4,-48.8 1899.6,-48.8 1899.6,-84.8"/>
<text text-anchor="middle" x="1834" y="-62.6" font-family="Times,serif" font-size="14.00">InfoRetoComponent</text>
</g>
<!-- InfoRetoComponent&#45;&gt;ComponentsModule -->
<g id="edge10" class="edge">
<title>InfoRetoComponent&#45;&gt;ComponentsModule</title>
<path fill="none" stroke="black" d="M1802.88,-85.04C1802.88,-100.37 1802.88,-119.8 1802.88,-119.8 1802.88,-119.8 1636.45,-119.8 1636.45,-119.8"/>
<polygon fill="black" stroke="black" points="1636.45,-116.3 1626.45,-119.8 1636.45,-123.3 1636.45,-116.3"/>
</g>
<!-- LoginComponent -->
<g id="node14" class="node">
<title>LoginComponent</title>
<polygon fill="#ffffb3" stroke="black" points="1750.27,-84.8 1635.73,-84.8 1635.73,-48.8 1750.27,-48.8 1750.27,-84.8"/>
<text text-anchor="middle" x="1693" y="-62.6" font-family="Times,serif" font-size="14.00">LoginComponent</text>
</g>
<!-- LoginComponent&#45;&gt;ComponentsModule -->
<g id="edge11" class="edge">
<title>LoginComponent&#45;&gt;ComponentsModule</title>
<path fill="none" stroke="black" d="M1635.42,-66.8C1627.54,-66.8 1622.08,-66.8 1622.08,-66.8 1622.08,-66.8 1622.08,-103.69 1622.08,-103.69"/>
<polygon fill="black" stroke="black" points="1618.58,-103.69 1622.08,-113.69 1625.58,-103.69 1618.58,-103.69"/>
</g>
<!-- MenuComponent -->
<g id="node15" class="node">
<title>MenuComponent</title>
<polygon fill="#ffffb3" stroke="black" points="1617.99,-84.8 1504.01,-84.8 1504.01,-48.8 1617.99,-48.8 1617.99,-84.8"/>
<text text-anchor="middle" x="1561" y="-62.6" font-family="Times,serif" font-size="14.00">MenuComponent</text>
</g>
<!-- MenuComponent&#45;&gt;ComponentsModule -->
<g id="edge12" class="edge">
<title>MenuComponent&#45;&gt;ComponentsModule</title>
<path fill="none" stroke="black" d="M1561,-84.91C1561,-84.91 1561,-103.79 1561,-103.79"/>
<polygon fill="black" stroke="black" points="1557.5,-103.79 1561,-113.79 1564.5,-103.79 1557.5,-103.79"/>
</g>
<!-- NoticiaComponent -->
<g id="node16" class="node">
<title>NoticiaComponent</title>
<polygon fill="#ffffb3" stroke="black" points="1486.04,-84.8 1363.96,-84.8 1363.96,-48.8 1486.04,-48.8 1486.04,-84.8"/>
<text text-anchor="middle" x="1425" y="-62.6" font-family="Times,serif" font-size="14.00">NoticiaComponent</text>
</g>
<!-- NoticiaComponent&#45;&gt;ComponentsModule -->
<g id="edge13" class="edge">
<title>NoticiaComponent&#45;&gt;ComponentsModule</title>
<path fill="none" stroke="black" d="M1486.18,-66.8C1494.32,-66.8 1499.92,-66.8 1499.92,-66.8 1499.92,-66.8 1499.92,-103.69 1499.92,-103.69"/>
<polygon fill="black" stroke="black" points="1496.42,-103.69 1499.92,-113.69 1503.42,-103.69 1496.42,-103.69"/>
</g>
<!-- NoticiasComponent -->
<g id="node17" class="node">
<title>NoticiasComponent</title>
<polygon fill="#ffffb3" stroke="black" points="1345.99,-84.8 1218.01,-84.8 1218.01,-48.8 1345.99,-48.8 1345.99,-84.8"/>
<text text-anchor="middle" x="1282" y="-62.6" font-family="Times,serif" font-size="14.00">NoticiasComponent</text>
</g>
<!-- NoticiasComponent&#45;&gt;ComponentsModule -->
<g id="edge14" class="edge">
<title>NoticiasComponent&#45;&gt;ComponentsModule</title>
<path fill="none" stroke="black" d="M1314.12,-85.04C1314.12,-100.37 1314.12,-119.8 1314.12,-119.8 1314.12,-119.8 1485.81,-119.8 1485.81,-119.8"/>
<polygon fill="black" stroke="black" points="1485.81,-123.3 1495.81,-119.8 1485.81,-116.3 1485.81,-123.3"/>
</g>
<!-- RegistroComponent -->
<g id="node18" class="node">
<title>RegistroComponent</title>
<polygon fill="#ffffb3" stroke="black" points="1200.27,-84.8 1071.73,-84.8 1071.73,-48.8 1200.27,-48.8 1200.27,-84.8"/>
<text text-anchor="middle" x="1136" y="-62.6" font-family="Times,serif" font-size="14.00">RegistroComponent</text>
</g>
<!-- RegistroComponent&#45;&gt;ComponentsModule -->
<g id="edge15" class="edge">
<title>RegistroComponent&#45;&gt;ComponentsModule</title>
<path fill="none" stroke="black" d="M1166.12,-84.83C1166.12,-101.86 1166.12,-124.8 1166.12,-124.8 1166.12,-124.8 1485.79,-124.8 1485.79,-124.8"/>
<polygon fill="black" stroke="black" points="1485.79,-128.3 1495.79,-124.8 1485.79,-121.3 1485.79,-128.3"/>
</g>
<!-- RetoComponent -->
<g id="node19" class="node">
<title>RetoComponent</title>
<polygon fill="#ffffb3" stroke="black" points="1053.77,-84.8 946.23,-84.8 946.23,-48.8 1053.77,-48.8 1053.77,-84.8"/>
<text text-anchor="middle" x="1000" y="-62.6" font-family="Times,serif" font-size="14.00">RetoComponent</text>
</g>
<!-- RetoComponent&#45;&gt;ComponentsModule -->
<g id="edge16" class="edge">
<title>RetoComponent&#45;&gt;ComponentsModule</title>
<path fill="none" stroke="black" d="M1028.12,-85.02C1028.12,-103.63 1028.12,-129.8 1028.12,-129.8 1028.12,-129.8 1485.66,-129.8 1485.66,-129.8"/>
<polygon fill="black" stroke="black" points="1485.66,-133.3 1495.66,-129.8 1485.66,-126.3 1485.66,-133.3"/>
</g>
<!-- FabLoginComponent  -->
<g id="node21" class="node">
<title>FabLoginComponent </title>
<polygon fill="#fb8072" stroke="black" points="2137.77,-214.8 1998.23,-214.8 1998.23,-178.8 2137.77,-178.8 2137.77,-214.8"/>
<text text-anchor="middle" x="2068" y="-192.6" font-family="Times,serif" font-size="14.00">FabLoginComponent </text>
</g>
<!-- ComponentsModule&#45;&gt;FabLoginComponent  -->
<g id="edge17" class="edge">
<title>ComponentsModule&#45;&gt;FabLoginComponent </title>
<path fill="none" stroke="black" stroke-dasharray="5,2" d="M1626.57,-134.8C1753.1,-134.8 2018.62,-134.8 2018.62,-134.8 2018.62,-134.8 2018.62,-168.53 2018.62,-168.53"/>
<polygon fill="black" stroke="black" points="2015.12,-168.53 2018.62,-178.53 2022.12,-168.53 2015.12,-168.53"/>
</g>
<!-- HeaderComponent  -->
<g id="node22" class="node">
<title>HeaderComponent </title>
<polygon fill="#fb8072" stroke="black" points="1980.75,-214.8 1855.25,-214.8 1855.25,-178.8 1980.75,-178.8 1980.75,-214.8"/>
<text text-anchor="middle" x="1918" y="-192.6" font-family="Times,serif" font-size="14.00">HeaderComponent </text>
</g>
<!-- ComponentsModule&#45;&gt;HeaderComponent  -->
<g id="edge18" class="edge">
<title>ComponentsModule&#45;&gt;HeaderComponent </title>
<path fill="none" stroke="black" stroke-dasharray="5,2" d="M1626.19,-139.8C1718.83,-139.8 1877.46,-139.8 1877.46,-139.8 1877.46,-139.8 1877.46,-168.76 1877.46,-168.76"/>
<polygon fill="black" stroke="black" points="1873.96,-168.76 1877.46,-178.76 1880.96,-168.76 1873.96,-168.76"/>
</g>
<!-- InfoRetoComponent  -->
<g id="node23" class="node">
<title>InfoRetoComponent </title>
<polygon fill="#fb8072" stroke="black" points="1837.1,-214.8 1702.9,-214.8 1702.9,-178.8 1837.1,-178.8 1837.1,-214.8"/>
<text text-anchor="middle" x="1770" y="-192.6" font-family="Times,serif" font-size="14.00">InfoRetoComponent </text>
</g>
<!-- ComponentsModule&#45;&gt;InfoRetoComponent  -->
<g id="edge19" class="edge">
<title>ComponentsModule&#45;&gt;InfoRetoComponent </title>
<path fill="none" stroke="black" stroke-dasharray="5,2" d="M1626.43,-144.8C1672.7,-144.8 1726.54,-144.8 1726.54,-144.8 1726.54,-144.8 1726.54,-168.61 1726.54,-168.61"/>
<polygon fill="black" stroke="black" points="1723.04,-168.61 1726.54,-178.61 1730.04,-168.61 1723.04,-168.61"/>
</g>
<!-- LoginComponent  -->
<g id="node24" class="node">
<title>LoginComponent </title>
<polygon fill="#fb8072" stroke="black" points="1685.27,-214.8 1566.73,-214.8 1566.73,-178.8 1685.27,-178.8 1685.27,-214.8"/>
<text text-anchor="middle" x="1626" y="-192.6" font-family="Times,serif" font-size="14.00">LoginComponent </text>
</g>
<!-- ComponentsModule&#45;&gt;LoginComponent  -->
<g id="edge20" class="edge">
<title>ComponentsModule&#45;&gt;LoginComponent </title>
<path fill="none" stroke="black" stroke-dasharray="5,2" d="M1596.51,-149.91C1596.51,-149.91 1596.51,-168.79 1596.51,-168.79"/>
<polygon fill="black" stroke="black" points="1593.01,-168.79 1596.51,-178.79 1600.01,-168.79 1593.01,-168.79"/>
</g>
<!-- MenuComponent  -->
<g id="node25" class="node">
<title>MenuComponent </title>
<polygon fill="#fb8072" stroke="black" points="1548.99,-214.8 1431.01,-214.8 1431.01,-178.8 1548.99,-178.8 1548.99,-214.8"/>
<text text-anchor="middle" x="1490" y="-192.6" font-family="Times,serif" font-size="14.00">MenuComponent </text>
</g>
<!-- ComponentsModule&#45;&gt;MenuComponent  -->
<g id="edge21" class="edge">
<title>ComponentsModule&#45;&gt;MenuComponent </title>
<path fill="none" stroke="black" stroke-dasharray="5,2" d="M1522.29,-149.91C1522.29,-149.91 1522.29,-168.79 1522.29,-168.79"/>
<polygon fill="black" stroke="black" points="1518.79,-168.79 1522.29,-178.79 1525.79,-168.79 1518.79,-168.79"/>
</g>
<!-- NoticiasComponent  -->
<g id="node26" class="node">
<title>NoticiasComponent </title>
<polygon fill="#fb8072" stroke="black" points="1413.99,-214.8 1282.01,-214.8 1282.01,-178.8 1413.99,-178.8 1413.99,-214.8"/>
<text text-anchor="middle" x="1348" y="-192.6" font-family="Times,serif" font-size="14.00">NoticiasComponent </text>
</g>
<!-- ComponentsModule&#45;&gt;NoticiasComponent  -->
<g id="edge22" class="edge">
<title>ComponentsModule&#45;&gt;NoticiasComponent </title>
<path fill="none" stroke="black" stroke-dasharray="5,2" d="M1495.38,-144.8C1446.7,-144.8 1388.74,-144.8 1388.74,-144.8 1388.74,-144.8 1388.74,-168.61 1388.74,-168.61"/>
<polygon fill="black" stroke="black" points="1385.24,-168.61 1388.74,-178.61 1392.24,-168.61 1385.24,-168.61"/>
</g>
<!-- RegistroComponent  -->
<g id="node27" class="node">
<title>RegistroComponent </title>
<polygon fill="#fb8072" stroke="black" points="1264.27,-214.8 1131.73,-214.8 1131.73,-178.8 1264.27,-178.8 1264.27,-214.8"/>
<text text-anchor="middle" x="1198" y="-192.6" font-family="Times,serif" font-size="14.00">RegistroComponent </text>
</g>
<!-- ComponentsModule&#45;&gt;RegistroComponent  -->
<g id="edge23" class="edge">
<title>ComponentsModule&#45;&gt;RegistroComponent </title>
<path fill="none" stroke="black" stroke-dasharray="5,2" d="M1495.49,-139.8C1401.89,-139.8 1241.07,-139.8 1241.07,-139.8 1241.07,-139.8 1241.07,-168.76 1241.07,-168.76"/>
<polygon fill="black" stroke="black" points="1237.57,-168.76 1241.07,-178.76 1244.57,-168.76 1237.57,-168.76"/>
</g>
<!-- RetoComponent  -->
<g id="node28" class="node">
<title>RetoComponent </title>
<polygon fill="#fb8072" stroke="black" points="1113.77,-214.8 1002.23,-214.8 1002.23,-178.8 1113.77,-178.8 1113.77,-214.8"/>
<text text-anchor="middle" x="1058" y="-192.6" font-family="Times,serif" font-size="14.00">RetoComponent </text>
</g>
<!-- ComponentsModule&#45;&gt;RetoComponent  -->
<g id="edge24" class="edge">
<title>ComponentsModule&#45;&gt;RetoComponent </title>
<path fill="none" stroke="black" stroke-dasharray="5,2" d="M1495.38,-134.8C1366.48,-134.8 1092.62,-134.8 1092.62,-134.8 1092.62,-134.8 1092.62,-168.53 1092.62,-168.53"/>
<polygon fill="black" stroke="black" points="1089.13,-168.53 1092.62,-178.53 1096.13,-168.53 1089.13,-168.53"/>
</g>
<!-- FavoritosPage -->
<g id="node29" class="node">
<title>FavoritosPage</title>
<polygon fill="#ffffb3" stroke="black" points="2537.1,-84.8 2440.9,-84.8 2440.9,-48.8 2537.1,-48.8 2537.1,-84.8"/>
<text text-anchor="middle" x="2489" y="-62.6" font-family="Times,serif" font-size="14.00">FavoritosPage</text>
</g>
<!-- FavoritosPageModule -->
<g id="node30" class="node">
<title>FavoritosPageModule</title>
<polygon fill="#8dd3c7" stroke="black" points="2469.66,-149.8 2466.66,-153.8 2445.66,-153.8 2442.66,-149.8 2330.34,-149.8 2330.34,-113.8 2469.66,-113.8 2469.66,-149.8"/>
<text text-anchor="middle" x="2400" y="-127.6" font-family="Times,serif" font-size="14.00">FavoritosPageModule</text>
</g>
<!-- FavoritosPage&#45;&gt;FavoritosPageModule -->
<g id="edge25" class="edge">
<title>FavoritosPage&#45;&gt;FavoritosPageModule</title>
<path fill="none" stroke="black" d="M2455.39,-84.91C2455.39,-84.91 2455.39,-103.79 2455.39,-103.79"/>
<polygon fill="black" stroke="black" points="2451.89,-103.79 2455.39,-113.79 2458.89,-103.79 2451.89,-103.79"/>
</g>
<!-- FavoritosPageRoutingModule -->
<g id="node31" class="node">
<title>FavoritosPageRoutingModule</title>
<polygon fill="#8dd3c7" stroke="black" points="2417.27,-84.8 2414.27,-88.8 2393.27,-88.8 2390.27,-84.8 2232.73,-84.8 2232.73,-48.8 2417.27,-48.8 2417.27,-84.8"/>
<text text-anchor="middle" x="2325" y="-62.6" font-family="Times,serif" font-size="14.00">FavoritosPageRoutingModule</text>
</g>
<!-- FavoritosPageRoutingModule&#45;&gt;FavoritosPageModule -->
<g id="edge26" class="edge">
<title>FavoritosPageRoutingModule&#45;&gt;FavoritosPageModule</title>
<path fill="none" stroke="black" d="M2373.78,-84.91C2373.78,-84.91 2373.78,-103.79 2373.78,-103.79"/>
<polygon fill="black" stroke="black" points="2370.28,-103.79 2373.78,-113.79 2377.28,-103.79 2370.28,-103.79"/>
</g>
<!-- HomePage -->
<g id="node32" class="node">
<title>HomePage</title>
<polygon fill="#ffffb3" stroke="black" points="2654.93,-84.8 2577.07,-84.8 2577.07,-48.8 2654.93,-48.8 2654.93,-84.8"/>
<text text-anchor="middle" x="2616" y="-62.6" font-family="Times,serif" font-size="14.00">HomePage</text>
</g>
<!-- HomePageModule -->
<g id="node33" class="node">
<title>HomePageModule</title>
<polygon fill="#8dd3c7" stroke="black" points="2755.48,-149.8 2752.48,-153.8 2731.48,-153.8 2728.48,-149.8 2634.52,-149.8 2634.52,-113.8 2755.48,-113.8 2755.48,-149.8"/>
<text text-anchor="middle" x="2695" y="-127.6" font-family="Times,serif" font-size="14.00">HomePageModule</text>
</g>
<!-- HomePage&#45;&gt;HomePageModule -->
<g id="edge27" class="edge">
<title>HomePage&#45;&gt;HomePageModule</title>
<path fill="none" stroke="black" d="M2644.61,-84.91C2644.61,-84.91 2644.61,-103.79 2644.61,-103.79"/>
<polygon fill="black" stroke="black" points="2641.11,-103.79 2644.61,-113.79 2648.11,-103.79 2641.11,-103.79"/>
</g>
<!-- HomePageRoutingModule -->
<g id="node34" class="node">
<title>HomePageRoutingModule</title>
<polygon fill="#8dd3c7" stroke="black" points="2845.1,-84.8 2842.1,-88.8 2821.1,-88.8 2818.1,-84.8 2678.9,-84.8 2678.9,-48.8 2845.1,-48.8 2845.1,-84.8"/>
<text text-anchor="middle" x="2762" y="-62.6" font-family="Times,serif" font-size="14.00">HomePageRoutingModule</text>
</g>
<!-- HomePageRoutingModule&#45;&gt;HomePageModule -->
<g id="edge28" class="edge">
<title>HomePageRoutingModule&#45;&gt;HomePageModule</title>
<path fill="none" stroke="black" d="M2717.22,-84.91C2717.22,-84.91 2717.22,-103.79 2717.22,-103.79"/>
<polygon fill="black" stroke="black" points="2713.72,-103.79 2717.22,-113.79 2720.72,-103.79 2713.72,-103.79"/>
</g>
<!-- MisRetosPage -->
<g id="node35" class="node">
<title>MisRetosPage</title>
<polygon fill="#ffffb3" stroke="black" points="3191.39,-84.8 3094.61,-84.8 3094.61,-48.8 3191.39,-48.8 3191.39,-84.8"/>
<text text-anchor="middle" x="3143" y="-62.6" font-family="Times,serif" font-size="14.00">MisRetosPage</text>
</g>
<!-- MisRetosPageModule -->
<g id="node36" class="node">
<title>MisRetosPageModule</title>
<polygon fill="#8dd3c7" stroke="black" points="3123.44,-149.8 3120.44,-153.8 3099.44,-153.8 3096.44,-149.8 2982.56,-149.8 2982.56,-113.8 3123.44,-113.8 3123.44,-149.8"/>
<text text-anchor="middle" x="3053" y="-127.6" font-family="Times,serif" font-size="14.00">MisRetosPageModule</text>
</g>
<!-- MisRetosPage&#45;&gt;MisRetosPageModule -->
<g id="edge29" class="edge">
<title>MisRetosPage&#45;&gt;MisRetosPageModule</title>
<path fill="none" stroke="black" d="M3108.89,-84.91C3108.89,-84.91 3108.89,-103.79 3108.89,-103.79"/>
<polygon fill="black" stroke="black" points="3105.39,-103.79 3108.89,-113.79 3112.39,-103.79 3105.39,-103.79"/>
</g>
<!-- MisRetosPageRoutingModule -->
<g id="node37" class="node">
<title>MisRetosPageRoutingModule</title>
<polygon fill="#8dd3c7" stroke="black" points="3070.56,-84.8 3067.56,-88.8 3046.56,-88.8 3043.56,-84.8 2885.44,-84.8 2885.44,-48.8 3070.56,-48.8 3070.56,-84.8"/>
<text text-anchor="middle" x="2978" y="-62.6" font-family="Times,serif" font-size="14.00">MisRetosPageRoutingModule</text>
</g>
<!-- MisRetosPageRoutingModule&#45;&gt;MisRetosPageModule -->
<g id="edge30" class="edge">
<title>MisRetosPageRoutingModule&#45;&gt;MisRetosPageModule</title>
<path fill="none" stroke="black" d="M3026.78,-84.91C3026.78,-84.91 3026.78,-103.79 3026.78,-103.79"/>
<polygon fill="black" stroke="black" points="3023.28,-103.79 3026.78,-113.79 3030.28,-103.79 3023.28,-103.79"/>
</g>
<!-- NoticiasPage -->
<g id="node38" class="node">
<title>NoticiasPage</title>
<polygon fill="#ffffb3" stroke="black" points="3320.87,-84.8 3231.13,-84.8 3231.13,-48.8 3320.87,-48.8 3320.87,-84.8"/>
<text text-anchor="middle" x="3276" y="-62.6" font-family="Times,serif" font-size="14.00">NoticiasPage</text>
</g>
<!-- NoticiasPageModule -->
<g id="node39" class="node">
<title>NoticiasPageModule</title>
<polygon fill="#8dd3c7" stroke="black" points="3428.92,-149.8 3425.92,-153.8 3404.92,-153.8 3401.92,-149.8 3295.08,-149.8 3295.08,-113.8 3428.92,-113.8 3428.92,-149.8"/>
<text text-anchor="middle" x="3362" y="-127.6" font-family="Times,serif" font-size="14.00">NoticiasPageModule</text>
</g>
<!-- NoticiasPage&#45;&gt;NoticiasPageModule -->
<g id="edge31" class="edge">
<title>NoticiasPage&#45;&gt;NoticiasPageModule</title>
<path fill="none" stroke="black" d="M3308.11,-84.91C3308.11,-84.91 3308.11,-103.79 3308.11,-103.79"/>
<polygon fill="black" stroke="black" points="3304.61,-103.79 3308.11,-113.79 3311.61,-103.79 3304.61,-103.79"/>
</g>
<!-- NoticiasPageRoutingModule -->
<g id="node40" class="node">
<title>NoticiasPageRoutingModule</title>
<polygon fill="#8dd3c7" stroke="black" points="3523.04,-84.8 3520.04,-88.8 3499.04,-88.8 3496.04,-84.8 3344.96,-84.8 3344.96,-48.8 3523.04,-48.8 3523.04,-84.8"/>
<text text-anchor="middle" x="3434" y="-62.6" font-family="Times,serif" font-size="14.00">NoticiasPageRoutingModule</text>
</g>
<!-- NoticiasPageRoutingModule&#45;&gt;NoticiasPageModule -->
<g id="edge32" class="edge">
<title>NoticiasPageRoutingModule&#45;&gt;NoticiasPageModule</title>
<path fill="none" stroke="black" d="M3386.72,-84.91C3386.72,-84.91 3386.72,-103.79 3386.72,-103.79"/>
<polygon fill="black" stroke="black" points="3383.22,-103.79 3386.72,-113.79 3390.22,-103.79 3383.22,-103.79"/>
</g>
<!-- PerfilPage -->
<g id="node41" class="node">
<title>PerfilPage</title>
<polygon fill="#ffffb3" stroke="black" points="3823.32,-84.8 3748.68,-84.8 3748.68,-48.8 3823.32,-48.8 3823.32,-84.8"/>
<text text-anchor="middle" x="3786" y="-62.6" font-family="Times,serif" font-size="14.00">PerfilPage</text>
</g>
<!-- PerfilPageModule -->
<g id="node42" class="node">
<title>PerfilPageModule</title>
<polygon fill="#8dd3c7" stroke="black" points="3766.87,-149.8 3763.87,-153.8 3742.87,-153.8 3739.87,-149.8 3649.13,-149.8 3649.13,-113.8 3766.87,-113.8 3766.87,-149.8"/>
<text text-anchor="middle" x="3708" y="-127.6" font-family="Times,serif" font-size="14.00">PerfilPageModule</text>
</g>
<!-- PerfilPage&#45;&gt;PerfilPageModule -->
<g id="edge33" class="edge">
<title>PerfilPage&#45;&gt;PerfilPageModule</title>
<path fill="none" stroke="black" d="M3757.89,-84.91C3757.89,-84.91 3757.89,-103.79 3757.89,-103.79"/>
<polygon fill="black" stroke="black" points="3754.39,-103.79 3757.89,-113.79 3761.39,-103.79 3754.39,-103.79"/>
</g>
<!-- PerfilPageRoutingModule -->
<g id="node43" class="node">
<title>PerfilPageRoutingModule</title>
<polygon fill="#8dd3c7" stroke="black" points="3725.49,-84.8 3722.49,-88.8 3701.49,-88.8 3698.49,-84.8 3562.51,-84.8 3562.51,-48.8 3725.49,-48.8 3725.49,-84.8"/>
<text text-anchor="middle" x="3644" y="-62.6" font-family="Times,serif" font-size="14.00">PerfilPageRoutingModule</text>
</g>
<!-- PerfilPageRoutingModule&#45;&gt;PerfilPageModule -->
<g id="edge34" class="edge">
<title>PerfilPageRoutingModule&#45;&gt;PerfilPageModule</title>
<path fill="none" stroke="black" d="M3687.28,-84.91C3687.28,-84.91 3687.28,-103.79 3687.28,-103.79"/>
<polygon fill="black" stroke="black" points="3683.78,-103.79 3687.28,-113.79 3690.78,-103.79 3683.78,-103.79"/>
</g>
<!-- RankingPage -->
<g id="node44" class="node">
<title>RankingPage</title>
<polygon fill="#ffffb3" stroke="black" points="3953.16,-84.8 3862.84,-84.8 3862.84,-48.8 3953.16,-48.8 3953.16,-84.8"/>
<text text-anchor="middle" x="3908" y="-62.6" font-family="Times,serif" font-size="14.00">RankingPage</text>
</g>
<!-- RankingPageModule -->
<g id="node45" class="node">
<title>RankingPageModule</title>
<polygon fill="#8dd3c7" stroke="black" points="4061.21,-149.8 4058.21,-153.8 4037.21,-153.8 4034.21,-149.8 3926.79,-149.8 3926.79,-113.8 4061.21,-113.8 4061.21,-149.8"/>
<text text-anchor="middle" x="3994" y="-127.6" font-family="Times,serif" font-size="14.00">RankingPageModule</text>
</g>
<!-- RankingPage&#45;&gt;RankingPageModule -->
<g id="edge35" class="edge">
<title>RankingPage&#45;&gt;RankingPageModule</title>
<path fill="none" stroke="black" d="M3940.11,-84.91C3940.11,-84.91 3940.11,-103.79 3940.11,-103.79"/>
<polygon fill="black" stroke="black" points="3936.61,-103.79 3940.11,-113.79 3943.61,-103.79 3936.61,-103.79"/>
</g>
<!-- RankingPageRoutingModule -->
<g id="node46" class="node">
<title>RankingPageRoutingModule</title>
<polygon fill="#8dd3c7" stroke="black" points="4156.82,-84.8 4153.82,-88.8 4132.82,-88.8 4129.82,-84.8 3977.18,-84.8 3977.18,-48.8 4156.82,-48.8 4156.82,-84.8"/>
<text text-anchor="middle" x="4067" y="-62.6" font-family="Times,serif" font-size="14.00">RankingPageRoutingModule</text>
</g>
<!-- RankingPageRoutingModule&#45;&gt;RankingPageModule -->
<g id="edge36" class="edge">
<title>RankingPageRoutingModule&#45;&gt;RankingPageModule</title>
<path fill="none" stroke="black" d="M4019.22,-84.91C4019.22,-84.91 4019.22,-103.79 4019.22,-103.79"/>
<polygon fill="black" stroke="black" points="4015.72,-103.79 4019.22,-113.79 4022.72,-103.79 4015.72,-103.79"/>
</g>
</g>
</svg>
