<?xml version="1.0" encoding="UTF-8" standalone="no"?>
<!DOCTYPE svg PUBLIC "-//W3C//DTD SVG 1.1//EN"
 "http://www.w3.org/Graphics/SVG/1.1/DTD/svg11.dtd">
<!-- Generated by graphviz version 5.0.0 (20220707.1540)
 -->
<!-- Title: dependencies Pages: 1 -->
<svg width="348pt" height="174pt"
 viewBox="0.00 0.00 348.00 173.80" xmlns="http://www.w3.org/2000/svg" xmlns:xlink="http://www.w3.org/1999/xlink">
<g id="graph0" class="graph" transform="scale(1 1) rotate(0) translate(4 169.8)">
<title>dependencies</title>
<polygon fill="white" stroke="transparent" points="-4,4 -4,-169.8 344,-169.8 344,4 -4,4"/>
<text text-anchor="middle" x="170" y="-8.2" font-family="sans-serif" font-size="14.00">dependencies</text>
<g id="clust1" class="cluster">
<title>cluster_NoticiasPageModule</title>
<polygon fill="none" stroke="black" stroke-dasharray="1,5" points="8,-32.8 8,-157.8 332,-157.8 332,-32.8 8,-32.8"/>
</g>
<g id="clust4" class="cluster">
<title>cluster_NoticiasPageModule_imports</title>
<polygon fill="none" stroke="black" points="130,-40.8 130,-92.8 324,-92.8 324,-40.8 130,-40.8"/>
</g>
<g id="clust2" class="cluster">
<title>cluster_NoticiasPageModule_declarations</title>
<polygon fill="none" stroke="black" points="16,-40.8 16,-92.8 122,-92.8 122,-40.8 16,-40.8"/>
</g>
<!-- NoticiasPage -->
<g id="node1" class="node">
<title>NoticiasPage</title>
<polygon fill="#ffffb3" stroke="black" points="113.87,-84.8 24.13,-84.8 24.13,-48.8 113.87,-48.8 113.87,-84.8"/>
<text text-anchor="middle" x="69" y="-62.6" font-family="Times,serif" font-size="14.00">NoticiasPage</text>
</g>
<!-- NoticiasPageModule -->
<g id="node2" class="node">
<title>NoticiasPageModule</title>
<polygon fill="#8dd3c7" stroke="black" points="221.92,-149.8 218.92,-153.8 197.92,-153.8 194.92,-149.8 88.08,-149.8 88.08,-113.8 221.92,-113.8 221.92,-149.8"/>
<text text-anchor="middle" x="155" y="-127.6" font-family="Times,serif" font-size="14.00">NoticiasPageModule</text>
</g>
<!-- NoticiasPage&#45;&gt;NoticiasPageModule -->
<g id="edge1" class="edge">
<title>NoticiasPage&#45;&gt;NoticiasPageModule</title>
<path fill="none" stroke="black" d="M101.11,-84.91C101.11,-84.91 101.11,-103.79 101.11,-103.79"/>
<polygon fill="black" stroke="black" points="97.61,-103.79 101.11,-113.79 104.61,-103.79 97.61,-103.79"/>
</g>
<!-- NoticiasPageRoutingModule -->
<g id="node3" class="node">
<title>NoticiasPageRoutingModule</title>
<polygon fill="#8dd3c7" stroke="black" points="316.04,-84.8 313.04,-88.8 292.04,-88.8 289.04,-84.8 137.96,-84.8 137.96,-48.8 316.04,-48.8 316.04,-84.8"/>
<text text-anchor="middle" x="227" y="-62.6" font-family="Times,serif" font-size="14.00">NoticiasPageRoutingModule</text>
</g>
<!-- NoticiasPageRoutingModule&#45;&gt;NoticiasPageModule -->
<g id="edge2" class="edge">
<title>NoticiasPageRoutingModule&#45;&gt;NoticiasPageModule</title>
<path fill="none" stroke="black" d="M179.72,-84.91C179.72,-84.91 179.72,-103.79 179.72,-103.79"/>
<polygon fill="black" stroke="black" points="176.22,-103.79 179.72,-113.79 183.22,-103.79 176.22,-103.79"/>
</g>
</g>
</svg>
