<?xml version="1.0" encoding="UTF-8" standalone="no"?>
<!DOCTYPE svg PUBLIC "-//W3C//DTD SVG 1.1//EN"
 "http://www.w3.org/Graphics/SVG/1.1/DTD/svg11.dtd">
<!-- Generated by graphviz version 5.0.0 (20220707.1540)
 -->
<!-- Title: dependencies Pages: 1 -->
<svg width="1455pt" height="247pt"
 viewBox="0.00 0.00 1455.00 246.80" xmlns="http://www.w3.org/2000/svg" xmlns:xlink="http://www.w3.org/1999/xlink">
<g id="graph0" class="graph" transform="scale(1 1) rotate(0) translate(4 242.8)">
<title>dependencies</title>
<polygon fill="white" stroke="transparent" points="-4,4 -4,-242.8 1451,-242.8 1451,4 -4,4"/>
<text text-anchor="middle" x="723.5" y="-8.2" font-family="sans-serif" font-size="14.00">dependencies</text>
<g id="clust1" class="cluster">
<title>cluster_ComponentsModule</title>
<polygon fill="none" stroke="black" stroke-dasharray="1,5" points="8,-32.8 8,-230.8 1439,-230.8 1439,-32.8 8,-32.8"/>
</g>
<g id="clust2" class="cluster">
<title>cluster_ComponentsModule_declarations</title>
<polygon fill="none" stroke="black" points="16,-40.8 16,-92.8 1431,-92.8 1431,-40.8 16,-40.8"/>
</g>
<g id="clust14" class="cluster">
<title>cluster_ComponentsModule_exports</title>
<polygon fill="none" stroke="black" points="69,-170.8 69,-222.8 1378,-222.8 1378,-170.8 69,-170.8"/>
</g>
<!-- FabLoginComponent -->
<g id="node1" class="node">
<title>FabLoginComponent</title>
<polygon fill="#ffffb3" stroke="black" points="1422.77,-84.8 1287.23,-84.8 1287.23,-48.8 1422.77,-48.8 1422.77,-84.8"/>
<text text-anchor="middle" x="1355" y="-62.6" font-family="Times,serif" font-size="14.00">FabLoginComponent</text>
</g>
<!-- ComponentsModule -->
<g id="node11" class="node">
<title>ComponentsModule</title>
<polygon fill="#8dd3c7" stroke="black" points="787.33,-149.8 784.33,-153.8 763.33,-153.8 760.33,-149.8 656.67,-149.8 656.67,-113.8 787.33,-113.8 787.33,-149.8"/>
<text text-anchor="middle" x="722" y="-127.6" font-family="Times,serif" font-size="14.00">ComponentsModule</text>
</g>
<!-- FabLoginComponent&#45;&gt;ComponentsModule -->
<g id="edge1" class="edge">
<title>FabLoginComponent&#45;&gt;ComponentsModule</title>
<path fill="none" stroke="black" d="M1328.38,-85.02C1328.38,-103.63 1328.38,-129.8 1328.38,-129.8 1328.38,-129.8 797.18,-129.8 797.18,-129.8"/>
<polygon fill="black" stroke="black" points="797.18,-126.3 787.18,-129.8 797.18,-133.3 797.18,-126.3"/>
</g>
<!-- HeaderComponent -->
<g id="node2" class="node">
<title>HeaderComponent</title>
<polygon fill="#ffffb3" stroke="black" points="1268.75,-84.8 1147.25,-84.8 1147.25,-48.8 1268.75,-48.8 1268.75,-84.8"/>
<text text-anchor="middle" x="1208" y="-62.6" font-family="Times,serif" font-size="14.00">HeaderComponent</text>
</g>
<!-- HeaderComponent&#45;&gt;ComponentsModule -->
<g id="edge2" class="edge">
<title>HeaderComponent&#45;&gt;ComponentsModule</title>
<path fill="none" stroke="black" d="M1179.88,-84.82C1179.88,-102.17 1179.88,-125.8 1179.88,-125.8 1179.88,-125.8 797.6,-125.8 797.6,-125.8"/>
<polygon fill="black" stroke="black" points="797.6,-122.3 787.6,-125.8 797.6,-129.3 797.6,-122.3"/>
</g>
<!-- InfoRetoComponent -->
<g id="node3" class="node">
<title>InfoRetoComponent</title>
<polygon fill="#ffffb3" stroke="black" points="1129.6,-84.8 998.4,-84.8 998.4,-48.8 1129.6,-48.8 1129.6,-84.8"/>
<text text-anchor="middle" x="1064" y="-62.6" font-family="Times,serif" font-size="14.00">InfoRetoComponent</text>
</g>
<!-- InfoRetoComponent&#45;&gt;ComponentsModule -->
<g id="edge3" class="edge">
<title>InfoRetoComponent&#45;&gt;ComponentsModule</title>
<path fill="none" stroke="black" d="M1033.88,-84.81C1033.88,-100.85 1033.88,-121.8 1033.88,-121.8 1033.88,-121.8 797.38,-121.8 797.38,-121.8"/>
<polygon fill="black" stroke="black" points="797.38,-118.3 787.38,-121.8 797.38,-125.3 797.38,-118.3"/>
</g>
<!-- LoginComponent -->
<g id="node4" class="node">
<title>LoginComponent</title>
<polygon fill="#ffffb3" stroke="black" points="980.27,-84.8 865.73,-84.8 865.73,-48.8 980.27,-48.8 980.27,-84.8"/>
<text text-anchor="middle" x="923" y="-62.6" font-family="Times,serif" font-size="14.00">LoginComponent</text>
</g>
<!-- LoginComponent&#45;&gt;ComponentsModule -->
<g id="edge4" class="edge">
<title>LoginComponent&#45;&gt;ComponentsModule</title>
<path fill="none" stroke="black" d="M891.38,-84.92C891.38,-99.58 891.38,-117.8 891.38,-117.8 891.38,-117.8 797.48,-117.8 797.48,-117.8"/>
<polygon fill="black" stroke="black" points="797.48,-114.3 787.48,-117.8 797.48,-121.3 797.48,-114.3"/>
</g>
<!-- MenuComponent -->
<g id="node5" class="node">
<title>MenuComponent</title>
<polygon fill="#ffffb3" stroke="black" points="847.99,-84.8 734.01,-84.8 734.01,-48.8 847.99,-48.8 847.99,-84.8"/>
<text text-anchor="middle" x="791" y="-62.6" font-family="Times,serif" font-size="14.00">MenuComponent</text>
</g>
<!-- MenuComponent&#45;&gt;ComponentsModule -->
<g id="edge5" class="edge">
<title>MenuComponent&#45;&gt;ComponentsModule</title>
<path fill="none" stroke="black" d="M760.58,-84.91C760.58,-84.91 760.58,-103.79 760.58,-103.79"/>
<polygon fill="black" stroke="black" points="757.08,-103.79 760.58,-113.79 764.08,-103.79 757.08,-103.79"/>
</g>
<!-- NewRetoComponent -->
<g id="node6" class="node">
<title>NewRetoComponent</title>
<polygon fill="#ffffb3" stroke="black" points="716.21,-84.8 581.79,-84.8 581.79,-48.8 716.21,-48.8 716.21,-84.8"/>
<text text-anchor="middle" x="649" y="-62.6" font-family="Times,serif" font-size="14.00">NewRetoComponent</text>
</g>
<!-- NewRetoComponent&#45;&gt;ComponentsModule -->
<g id="edge6" class="edge">
<title>NewRetoComponent&#45;&gt;ComponentsModule</title>
<path fill="none" stroke="black" d="M686.47,-84.91C686.47,-84.91 686.47,-103.79 686.47,-103.79"/>
<polygon fill="black" stroke="black" points="682.97,-103.79 686.47,-113.79 689.97,-103.79 682.97,-103.79"/>
</g>
<!-- NoticiaComponent -->
<g id="node7" class="node">
<title>NoticiaComponent</title>
<polygon fill="#ffffb3" stroke="black" points="564.04,-84.8 441.96,-84.8 441.96,-48.8 564.04,-48.8 564.04,-84.8"/>
<text text-anchor="middle" x="503" y="-62.6" font-family="Times,serif" font-size="14.00">NoticiaComponent</text>
</g>
<!-- NoticiaComponent&#45;&gt;ComponentsModule -->
<g id="edge7" class="edge">
<title>NoticiaComponent&#45;&gt;ComponentsModule</title>
<path fill="none" stroke="black" d="M535.71,-84.92C535.71,-99.58 535.71,-117.8 535.71,-117.8 535.71,-117.8 646.58,-117.8 646.58,-117.8"/>
<polygon fill="black" stroke="black" points="646.58,-121.3 656.58,-117.8 646.58,-114.3 646.58,-121.3"/>
</g>
<!-- NoticiasComponent -->
<g id="node8" class="node">
<title>NoticiasComponent</title>
<polygon fill="#ffffb3" stroke="black" points="423.99,-84.8 296.01,-84.8 296.01,-48.8 423.99,-48.8 423.99,-84.8"/>
<text text-anchor="middle" x="360" y="-62.6" font-family="Times,serif" font-size="14.00">NoticiasComponent</text>
</g>
<!-- NoticiasComponent&#45;&gt;ComponentsModule -->
<g id="edge8" class="edge">
<title>NoticiasComponent&#45;&gt;ComponentsModule</title>
<path fill="none" stroke="black" d="M390.62,-84.81C390.62,-100.85 390.62,-121.8 390.62,-121.8 390.62,-121.8 646.53,-121.8 646.53,-121.8"/>
<polygon fill="black" stroke="black" points="646.53,-125.3 656.53,-121.8 646.53,-118.3 646.53,-125.3"/>
</g>
<!-- RegistroComponent -->
<g id="node9" class="node">
<title>RegistroComponent</title>
<polygon fill="#ffffb3" stroke="black" points="278.27,-84.8 149.73,-84.8 149.73,-48.8 278.27,-48.8 278.27,-84.8"/>
<text text-anchor="middle" x="214" y="-62.6" font-family="Times,serif" font-size="14.00">RegistroComponent</text>
</g>
<!-- RegistroComponent&#45;&gt;ComponentsModule -->
<g id="edge9" class="edge">
<title>RegistroComponent&#45;&gt;ComponentsModule</title>
<path fill="none" stroke="black" d="M242.62,-84.82C242.62,-102.17 242.62,-125.8 242.62,-125.8 242.62,-125.8 646.6,-125.8 646.6,-125.8"/>
<polygon fill="black" stroke="black" points="646.6,-129.3 656.6,-125.8 646.6,-122.3 646.6,-129.3"/>
</g>
<!-- RetoComponent -->
<g id="node10" class="node">
<title>RetoComponent</title>
<polygon fill="#ffffb3" stroke="black" points="131.77,-84.8 24.23,-84.8 24.23,-48.8 131.77,-48.8 131.77,-84.8"/>
<text text-anchor="middle" x="78" y="-62.6" font-family="Times,serif" font-size="14.00">RetoComponent</text>
</g>
<!-- RetoComponent&#45;&gt;ComponentsModule -->
<g id="edge10" class="edge">
<title>RetoComponent&#45;&gt;ComponentsModule</title>
<path fill="none" stroke="black" d="M104.62,-85.02C104.62,-103.63 104.62,-129.8 104.62,-129.8 104.62,-129.8 646.81,-129.8 646.81,-129.8"/>
<polygon fill="black" stroke="black" points="646.81,-133.3 656.81,-129.8 646.81,-126.3 646.81,-133.3"/>
</g>
<!-- FabLoginComponent  -->
<g id="node12" class="node">
<title>FabLoginComponent </title>
<polygon fill="#fb8072" stroke="black" points="1369.77,-214.8 1230.23,-214.8 1230.23,-178.8 1369.77,-178.8 1369.77,-214.8"/>
<text text-anchor="middle" x="1300" y="-192.6" font-family="Times,serif" font-size="14.00">FabLoginComponent </text>
</g>
<!-- ComponentsModule&#45;&gt;FabLoginComponent  -->
<g id="edge11" class="edge">
<title>ComponentsModule&#45;&gt;FabLoginComponent </title>
<path fill="none" stroke="black" stroke-dasharray="5,2" d="M787.23,-133.8C928.39,-133.8 1249.62,-133.8 1249.62,-133.8 1249.62,-133.8 1249.62,-168.58 1249.62,-168.58"/>
<polygon fill="black" stroke="black" points="1246.12,-168.58 1249.62,-178.58 1253.12,-168.58 1246.12,-168.58"/>
</g>
<!-- HeaderComponent  -->
<g id="node13" class="node">
<title>HeaderComponent </title>
<polygon fill="#fb8072" stroke="black" points="1212.75,-214.8 1087.25,-214.8 1087.25,-178.8 1212.75,-178.8 1212.75,-214.8"/>
<text text-anchor="middle" x="1150" y="-192.6" font-family="Times,serif" font-size="14.00">HeaderComponent </text>
</g>
<!-- ComponentsModule&#45;&gt;HeaderComponent  -->
<g id="edge12" class="edge">
<title>ComponentsModule&#45;&gt;HeaderComponent </title>
<path fill="none" stroke="black" stroke-dasharray="5,2" d="M787.56,-137.8C897.82,-137.8 1108.46,-137.8 1108.46,-137.8 1108.46,-137.8 1108.46,-168.78 1108.46,-168.78"/>
<polygon fill="black" stroke="black" points="1104.96,-168.78 1108.46,-178.78 1111.96,-168.78 1104.96,-168.78"/>
</g>
<!-- InfoRetoComponent  -->
<g id="node14" class="node">
<title>InfoRetoComponent </title>
<polygon fill="#fb8072" stroke="black" points="1069.1,-214.8 934.9,-214.8 934.9,-178.8 1069.1,-178.8 1069.1,-214.8"/>
<text text-anchor="middle" x="1002" y="-192.6" font-family="Times,serif" font-size="14.00">InfoRetoComponent </text>
</g>
<!-- ComponentsModule&#45;&gt;InfoRetoComponent  -->
<g id="edge13" class="edge">
<title>ComponentsModule&#45;&gt;InfoRetoComponent </title>
<path fill="none" stroke="black" stroke-dasharray="5,2" d="M787.3,-141.8C857.01,-141.8 957.54,-141.8 957.54,-141.8 957.54,-141.8 957.54,-168.79 957.54,-168.79"/>
<polygon fill="black" stroke="black" points="954.04,-168.79 957.54,-178.79 961.04,-168.79 954.04,-168.79"/>
</g>
<!-- LoginComponent  -->
<g id="node15" class="node">
<title>LoginComponent </title>
<polygon fill="#fb8072" stroke="black" points="917.27,-214.8 798.73,-214.8 798.73,-178.8 917.27,-178.8 917.27,-214.8"/>
<text text-anchor="middle" x="858" y="-192.6" font-family="Times,serif" font-size="14.00">LoginComponent </text>
</g>
<!-- ComponentsModule&#45;&gt;LoginComponent  -->
<g id="edge14" class="edge">
<title>ComponentsModule&#45;&gt;LoginComponent </title>
<path fill="none" stroke="black" stroke-dasharray="5,2" d="M787.38,-145.8C807.01,-145.8 823.43,-145.8 823.43,-145.8 823.43,-145.8 823.43,-168.68 823.43,-168.68"/>
<polygon fill="black" stroke="black" points="819.93,-168.68 823.43,-178.68 826.93,-168.68 819.93,-168.68"/>
</g>
<!-- MenuComponent  -->
<g id="node16" class="node">
<title>MenuComponent </title>
<polygon fill="#fb8072" stroke="black" points="780.99,-214.8 663.01,-214.8 663.01,-178.8 780.99,-178.8 780.99,-214.8"/>
<text text-anchor="middle" x="722" y="-192.6" font-family="Times,serif" font-size="14.00">MenuComponent </text>
</g>
<!-- ComponentsModule&#45;&gt;MenuComponent  -->
<g id="edge15" class="edge">
<title>ComponentsModule&#45;&gt;MenuComponent </title>
<path fill="none" stroke="black" stroke-dasharray="5,2" d="M722,-149.91C722,-149.91 722,-168.79 722,-168.79"/>
<polygon fill="black" stroke="black" points="718.5,-168.79 722,-178.79 725.5,-168.79 718.5,-168.79"/>
</g>
<!-- NewRetoComponent  -->
<g id="node17" class="node">
<title>NewRetoComponent </title>
<polygon fill="#fb8072" stroke="black" points="644.71,-214.8 507.29,-214.8 507.29,-178.8 644.71,-178.8 644.71,-214.8"/>
<text text-anchor="middle" x="576" y="-192.6" font-family="Times,serif" font-size="14.00">NewRetoComponent </text>
</g>
<!-- ComponentsModule&#45;&gt;NewRetoComponent  -->
<g id="edge16" class="edge">
<title>ComponentsModule&#45;&gt;NewRetoComponent </title>
<path fill="none" stroke="black" stroke-dasharray="5,2" d="M656.62,-145.8C633.61,-145.8 613.38,-145.8 613.38,-145.8 613.38,-145.8 613.38,-168.68 613.38,-168.68"/>
<polygon fill="black" stroke="black" points="609.88,-168.68 613.38,-178.68 616.88,-168.68 609.88,-168.68"/>
</g>
<!-- NoticiasComponent  -->
<g id="node18" class="node">
<title>NoticiasComponent </title>
<polygon fill="#fb8072" stroke="black" points="488.99,-214.8 357.01,-214.8 357.01,-178.8 488.99,-178.8 488.99,-214.8"/>
<text text-anchor="middle" x="423" y="-192.6" font-family="Times,serif" font-size="14.00">NoticiasComponent </text>
</g>
<!-- ComponentsModule&#45;&gt;NoticiasComponent  -->
<g id="edge17" class="edge">
<title>ComponentsModule&#45;&gt;NoticiasComponent </title>
<path fill="none" stroke="black" stroke-dasharray="5,2" d="M656.54,-141.8C580.47,-141.8 465.24,-141.8 465.24,-141.8 465.24,-141.8 465.24,-168.79 465.24,-168.79"/>
<polygon fill="black" stroke="black" points="461.74,-168.79 465.24,-178.79 468.74,-168.79 461.74,-168.79"/>
</g>
<!-- RegistroComponent  -->
<g id="node19" class="node">
<title>RegistroComponent </title>
<polygon fill="#fb8072" stroke="black" points="339.27,-214.8 206.73,-214.8 206.73,-178.8 339.27,-178.8 339.27,-214.8"/>
<text text-anchor="middle" x="273" y="-192.6" font-family="Times,serif" font-size="14.00">RegistroComponent </text>
</g>
<!-- ComponentsModule&#45;&gt;RegistroComponent  -->
<g id="edge18" class="edge">
<title>ComponentsModule&#45;&gt;RegistroComponent </title>
<path fill="none" stroke="black" stroke-dasharray="5,2" d="M656.57,-137.8C542.11,-137.8 317.57,-137.8 317.57,-137.8 317.57,-137.8 317.57,-168.78 317.57,-168.78"/>
<polygon fill="black" stroke="black" points="314.07,-168.78 317.57,-178.78 321.07,-168.78 314.07,-168.78"/>
</g>
<!-- RetoComponent  -->
<g id="node20" class="node">
<title>RetoComponent </title>
<polygon fill="#fb8072" stroke="black" points="188.77,-214.8 77.23,-214.8 77.23,-178.8 188.77,-178.8 188.77,-214.8"/>
<text text-anchor="middle" x="133" y="-192.6" font-family="Times,serif" font-size="14.00">RetoComponent </text>
</g>
<!-- ComponentsModule&#45;&gt;RetoComponent  -->
<g id="edge19" class="edge">
<title>ComponentsModule&#45;&gt;RetoComponent </title>
<path fill="none" stroke="black" stroke-dasharray="5,2" d="M656.68,-133.8C510.38,-133.8 169.12,-133.8 169.12,-133.8 169.12,-133.8 169.12,-168.58 169.12,-168.58"/>
<polygon fill="black" stroke="black" points="165.63,-168.58 169.12,-178.58 172.63,-168.58 165.63,-168.58"/>
</g>
</g>
</svg>
