<?xml version="1.0" encoding="UTF-8" standalone="no"?>
<!DOCTYPE svg PUBLIC "-//W3C//DTD SVG 1.1//EN"
 "http://www.w3.org/Graphics/SVG/1.1/DTD/svg11.dtd">
<!-- Generated by graphviz version 5.0.0 (20220707.1540)
 -->
<!-- Title: dependencies Pages: 1 -->
<svg width="1303pt" height="247pt"
 viewBox="0.00 0.00 1303.00 246.80" xmlns="http://www.w3.org/2000/svg" xmlns:xlink="http://www.w3.org/1999/xlink">
<g id="graph0" class="graph" transform="scale(1 1) rotate(0) translate(4 242.8)">
<title>dependencies</title>
<polygon fill="white" stroke="transparent" points="-4,4 -4,-242.8 1299,-242.8 1299,4 -4,4"/>
<text text-anchor="middle" x="647.5" y="-8.2" font-family="sans-serif" font-size="14.00">dependencies</text>
<g id="clust1" class="cluster">
<title>cluster_ComponentsModule</title>
<polygon fill="none" stroke="black" stroke-dasharray="1,5" points="8,-32.8 8,-230.8 1287,-230.8 1287,-32.8 8,-32.8"/>
</g>
<g id="clust2" class="cluster">
<title>cluster_ComponentsModule_declarations</title>
<polygon fill="none" stroke="black" points="16,-40.8 16,-92.8 1279,-92.8 1279,-40.8 16,-40.8"/>
</g>
<g id="clust13" class="cluster">
<title>cluster_ComponentsModule_exports</title>
<polygon fill="none" stroke="black" points="72,-170.8 72,-222.8 1224,-222.8 1224,-170.8 72,-170.8"/>
</g>
<!-- FabLoginComponent -->
<g id="node1" class="node">
<title>FabLoginComponent</title>
<polygon fill="#ffffb3" stroke="black" points="1270.77,-84.8 1135.23,-84.8 1135.23,-48.8 1270.77,-48.8 1270.77,-84.8"/>
<text text-anchor="middle" x="1203" y="-62.6" font-family="Times,serif" font-size="14.00">FabLoginComponent</text>
</g>
<!-- ComponentsModule -->
<g id="node10" class="node">
<title>ComponentsModule</title>
<polygon fill="#8dd3c7" stroke="black" points="704.33,-149.8 701.33,-153.8 680.33,-153.8 677.33,-149.8 573.67,-149.8 573.67,-113.8 704.33,-113.8 704.33,-149.8"/>
<text text-anchor="middle" x="639" y="-127.6" font-family="Times,serif" font-size="14.00">ComponentsModule</text>
</g>
<!-- FabLoginComponent&#45;&gt;ComponentsModule -->
<g id="edge1" class="edge">
<title>FabLoginComponent&#45;&gt;ComponentsModule</title>
<path fill="none" stroke="black" d="M1175.38,-85.02C1175.38,-103.63 1175.38,-129.8 1175.38,-129.8 1175.38,-129.8 714.23,-129.8 714.23,-129.8"/>
<polygon fill="black" stroke="black" points="714.23,-126.3 704.23,-129.8 714.23,-133.3 714.23,-126.3"/>
</g>
<!-- HeaderComponent -->
<g id="node2" class="node">
<title>HeaderComponent</title>
<polygon fill="#ffffb3" stroke="black" points="1116.75,-84.8 995.25,-84.8 995.25,-48.8 1116.75,-48.8 1116.75,-84.8"/>
<text text-anchor="middle" x="1056" y="-62.6" font-family="Times,serif" font-size="14.00">HeaderComponent</text>
</g>
<!-- HeaderComponent&#45;&gt;ComponentsModule -->
<g id="edge2" class="edge">
<title>HeaderComponent&#45;&gt;ComponentsModule</title>
<path fill="none" stroke="black" d="M1026.88,-84.83C1026.88,-101.86 1026.88,-124.8 1026.88,-124.8 1026.88,-124.8 714.36,-124.8 714.36,-124.8"/>
<polygon fill="black" stroke="black" points="714.36,-121.3 704.36,-124.8 714.36,-128.3 714.36,-121.3"/>
</g>
<!-- InfoRetoComponent -->
<g id="node3" class="node">
<title>InfoRetoComponent</title>
<polygon fill="#ffffb3" stroke="black" points="977.6,-84.8 846.4,-84.8 846.4,-48.8 977.6,-48.8 977.6,-84.8"/>
<text text-anchor="middle" x="912" y="-62.6" font-family="Times,serif" font-size="14.00">InfoRetoComponent</text>
</g>
<!-- InfoRetoComponent&#45;&gt;ComponentsModule -->
<g id="edge3" class="edge">
<title>InfoRetoComponent&#45;&gt;ComponentsModule</title>
<path fill="none" stroke="black" d="M880.88,-85.04C880.88,-100.37 880.88,-119.8 880.88,-119.8 880.88,-119.8 714.45,-119.8 714.45,-119.8"/>
<polygon fill="black" stroke="black" points="714.45,-116.3 704.45,-119.8 714.45,-123.3 714.45,-116.3"/>
</g>
<!-- LoginComponent -->
<g id="node4" class="node">
<title>LoginComponent</title>
<polygon fill="#ffffb3" stroke="black" points="828.27,-84.8 713.73,-84.8 713.73,-48.8 828.27,-48.8 828.27,-84.8"/>
<text text-anchor="middle" x="771" y="-62.6" font-family="Times,serif" font-size="14.00">LoginComponent</text>
</g>
<!-- LoginComponent&#45;&gt;ComponentsModule -->
<g id="edge4" class="edge">
<title>LoginComponent&#45;&gt;ComponentsModule</title>
<path fill="none" stroke="black" d="M713.42,-66.8C705.54,-66.8 700.08,-66.8 700.08,-66.8 700.08,-66.8 700.08,-103.69 700.08,-103.69"/>
<polygon fill="black" stroke="black" points="696.58,-103.69 700.08,-113.69 703.58,-103.69 696.58,-103.69"/>
</g>
<!-- MenuComponent -->
<g id="node5" class="node">
<title>MenuComponent</title>
<polygon fill="#ffffb3" stroke="black" points="695.99,-84.8 582.01,-84.8 582.01,-48.8 695.99,-48.8 695.99,-84.8"/>
<text text-anchor="middle" x="639" y="-62.6" font-family="Times,serif" font-size="14.00">MenuComponent</text>
</g>
<!-- MenuComponent&#45;&gt;ComponentsModule -->
<g id="edge5" class="edge">
<title>MenuComponent&#45;&gt;ComponentsModule</title>
<path fill="none" stroke="black" d="M639,-84.91C639,-84.91 639,-103.79 639,-103.79"/>
<polygon fill="black" stroke="black" points="635.5,-103.79 639,-113.79 642.5,-103.79 635.5,-103.79"/>
</g>
<!-- NoticiaComponent -->
<g id="node6" class="node">
<title>NoticiaComponent</title>
<polygon fill="#ffffb3" stroke="black" points="564.04,-84.8 441.96,-84.8 441.96,-48.8 564.04,-48.8 564.04,-84.8"/>
<text text-anchor="middle" x="503" y="-62.6" font-family="Times,serif" font-size="14.00">NoticiaComponent</text>
</g>
<!-- NoticiaComponent&#45;&gt;ComponentsModule -->
<g id="edge6" class="edge">
<title>NoticiaComponent&#45;&gt;ComponentsModule</title>
<path fill="none" stroke="black" d="M564.18,-66.8C572.32,-66.8 577.92,-66.8 577.92,-66.8 577.92,-66.8 577.92,-103.69 577.92,-103.69"/>
<polygon fill="black" stroke="black" points="574.42,-103.69 577.92,-113.69 581.42,-103.69 574.42,-103.69"/>
</g>
<!-- NoticiasComponent -->
<g id="node7" class="node">
<title>NoticiasComponent</title>
<polygon fill="#ffffb3" stroke="black" points="423.99,-84.8 296.01,-84.8 296.01,-48.8 423.99,-48.8 423.99,-84.8"/>
<text text-anchor="middle" x="360" y="-62.6" font-family="Times,serif" font-size="14.00">NoticiasComponent</text>
</g>
<!-- NoticiasComponent&#45;&gt;ComponentsModule -->
<g id="edge7" class="edge">
<title>NoticiasComponent&#45;&gt;ComponentsModule</title>
<path fill="none" stroke="black" d="M392.12,-85.04C392.12,-100.37 392.12,-119.8 392.12,-119.8 392.12,-119.8 563.81,-119.8 563.81,-119.8"/>
<polygon fill="black" stroke="black" points="563.81,-123.3 573.81,-119.8 563.81,-116.3 563.81,-123.3"/>
</g>
<!-- RegistroComponent -->
<g id="node8" class="node">
<title>RegistroComponent</title>
<polygon fill="#ffffb3" stroke="black" points="278.27,-84.8 149.73,-84.8 149.73,-48.8 278.27,-48.8 278.27,-84.8"/>
<text text-anchor="middle" x="214" y="-62.6" font-family="Times,serif" font-size="14.00">RegistroComponent</text>
</g>
<!-- RegistroComponent&#45;&gt;ComponentsModule -->
<g id="edge8" class="edge">
<title>RegistroComponent&#45;&gt;ComponentsModule</title>
<path fill="none" stroke="black" d="M244.12,-84.83C244.12,-101.86 244.12,-124.8 244.12,-124.8 244.12,-124.8 563.79,-124.8 563.79,-124.8"/>
<polygon fill="black" stroke="black" points="563.79,-128.3 573.79,-124.8 563.79,-121.3 563.79,-128.3"/>
</g>
<!-- RetoComponent -->
<g id="node9" class="node">
<title>RetoComponent</title>
<polygon fill="#ffffb3" stroke="black" points="131.77,-84.8 24.23,-84.8 24.23,-48.8 131.77,-48.8 131.77,-84.8"/>
<text text-anchor="middle" x="78" y="-62.6" font-family="Times,serif" font-size="14.00">RetoComponent</text>
</g>
<!-- RetoComponent&#45;&gt;ComponentsModule -->
<g id="edge9" class="edge">
<title>RetoComponent&#45;&gt;ComponentsModule</title>
<path fill="none" stroke="black" d="M106.12,-85.02C106.12,-103.63 106.12,-129.8 106.12,-129.8 106.12,-129.8 563.66,-129.8 563.66,-129.8"/>
<polygon fill="black" stroke="black" points="563.66,-133.3 573.66,-129.8 563.66,-126.3 563.66,-133.3"/>
</g>
<!-- FabLoginComponent  -->
<g id="node11" class="node">
<title>FabLoginComponent </title>
<polygon fill="#fb8072" stroke="black" points="1215.77,-214.8 1076.23,-214.8 1076.23,-178.8 1215.77,-178.8 1215.77,-214.8"/>
<text text-anchor="middle" x="1146" y="-192.6" font-family="Times,serif" font-size="14.00">FabLoginComponent </text>
</g>
<!-- ComponentsModule&#45;&gt;FabLoginComponent  -->
<g id="edge10" class="edge">
<title>ComponentsModule&#45;&gt;FabLoginComponent </title>
<path fill="none" stroke="black" stroke-dasharray="5,2" d="M704.57,-134.8C831.1,-134.8 1096.62,-134.8 1096.62,-134.8 1096.62,-134.8 1096.62,-168.53 1096.62,-168.53"/>
<polygon fill="black" stroke="black" points="1093.12,-168.53 1096.62,-178.53 1100.12,-168.53 1093.12,-168.53"/>
</g>
<!-- HeaderComponent  -->
<g id="node12" class="node">
<title>HeaderComponent </title>
<polygon fill="#fb8072" stroke="black" points="1058.75,-214.8 933.25,-214.8 933.25,-178.8 1058.75,-178.8 1058.75,-214.8"/>
<text text-anchor="middle" x="996" y="-192.6" font-family="Times,serif" font-size="14.00">HeaderComponent </text>
</g>
<!-- ComponentsModule&#45;&gt;HeaderComponent  -->
<g id="edge11" class="edge">
<title>ComponentsModule&#45;&gt;HeaderComponent </title>
<path fill="none" stroke="black" stroke-dasharray="5,2" d="M704.19,-139.8C796.83,-139.8 955.46,-139.8 955.46,-139.8 955.46,-139.8 955.46,-168.76 955.46,-168.76"/>
<polygon fill="black" stroke="black" points="951.96,-168.76 955.46,-178.76 958.96,-168.76 951.96,-168.76"/>
</g>
<!-- InfoRetoComponent  -->
<g id="node13" class="node">
<title>InfoRetoComponent </title>
<polygon fill="#fb8072" stroke="black" points="915.1,-214.8 780.9,-214.8 780.9,-178.8 915.1,-178.8 915.1,-214.8"/>
<text text-anchor="middle" x="848" y="-192.6" font-family="Times,serif" font-size="14.00">InfoRetoComponent </text>
</g>
<!-- ComponentsModule&#45;&gt;InfoRetoComponent  -->
<g id="edge12" class="edge">
<title>ComponentsModule&#45;&gt;InfoRetoComponent </title>
<path fill="none" stroke="black" stroke-dasharray="5,2" d="M704.43,-144.8C750.7,-144.8 804.54,-144.8 804.54,-144.8 804.54,-144.8 804.54,-168.61 804.54,-168.61"/>
<polygon fill="black" stroke="black" points="801.04,-168.61 804.54,-178.61 808.04,-168.61 801.04,-168.61"/>
</g>
<!-- LoginComponent  -->
<g id="node14" class="node">
<title>LoginComponent </title>
<polygon fill="#fb8072" stroke="black" points="763.27,-214.8 644.73,-214.8 644.73,-178.8 763.27,-178.8 763.27,-214.8"/>
<text text-anchor="middle" x="704" y="-192.6" font-family="Times,serif" font-size="14.00">LoginComponent </text>
</g>
<!-- ComponentsModule&#45;&gt;LoginComponent  -->
<g id="edge13" class="edge">
<title>ComponentsModule&#45;&gt;LoginComponent </title>
<path fill="none" stroke="black" stroke-dasharray="5,2" d="M674.51,-149.91C674.51,-149.91 674.51,-168.79 674.51,-168.79"/>
<polygon fill="black" stroke="black" points="671.01,-168.79 674.51,-178.79 678.01,-168.79 671.01,-168.79"/>
</g>
<!-- MenuComponent  -->
<g id="node15" class="node">
<title>MenuComponent </title>
<polygon fill="#fb8072" stroke="black" points="626.99,-214.8 509.01,-214.8 509.01,-178.8 626.99,-178.8 626.99,-214.8"/>
<text text-anchor="middle" x="568" y="-192.6" font-family="Times,serif" font-size="14.00">MenuComponent </text>
</g>
<!-- ComponentsModule&#45;&gt;MenuComponent  -->
<g id="edge14" class="edge">
<title>ComponentsModule&#45;&gt;MenuComponent </title>
<path fill="none" stroke="black" stroke-dasharray="5,2" d="M600.29,-149.91C600.29,-149.91 600.29,-168.79 600.29,-168.79"/>
<polygon fill="black" stroke="black" points="596.79,-168.79 600.29,-178.79 603.79,-168.79 596.79,-168.79"/>
</g>
<!-- NoticiasComponent  -->
<g id="node16" class="node">
<title>NoticiasComponent </title>
<polygon fill="#fb8072" stroke="black" points="491.99,-214.8 360.01,-214.8 360.01,-178.8 491.99,-178.8 491.99,-214.8"/>
<text text-anchor="middle" x="426" y="-192.6" font-family="Times,serif" font-size="14.00">NoticiasComponent </text>
</g>
<!-- ComponentsModule&#45;&gt;NoticiasComponent  -->
<g id="edge15" class="edge">
<title>ComponentsModule&#45;&gt;NoticiasComponent </title>
<path fill="none" stroke="black" stroke-dasharray="5,2" d="M573.38,-144.8C524.7,-144.8 466.74,-144.8 466.74,-144.8 466.74,-144.8 466.74,-168.61 466.74,-168.61"/>
<polygon fill="black" stroke="black" points="463.24,-168.61 466.74,-178.61 470.24,-168.61 463.24,-168.61"/>
</g>
<!-- RegistroComponent  -->
<g id="node17" class="node">
<title>RegistroComponent </title>
<polygon fill="#fb8072" stroke="black" points="342.27,-214.8 209.73,-214.8 209.73,-178.8 342.27,-178.8 342.27,-214.8"/>
<text text-anchor="middle" x="276" y="-192.6" font-family="Times,serif" font-size="14.00">RegistroComponent </text>
</g>
<!-- ComponentsModule&#45;&gt;RegistroComponent  -->
<g id="edge16" class="edge">
<title>ComponentsModule&#45;&gt;RegistroComponent </title>
<path fill="none" stroke="black" stroke-dasharray="5,2" d="M573.49,-139.8C479.89,-139.8 319.07,-139.8 319.07,-139.8 319.07,-139.8 319.07,-168.76 319.07,-168.76"/>
<polygon fill="black" stroke="black" points="315.57,-168.76 319.07,-178.76 322.57,-168.76 315.57,-168.76"/>
</g>
<!-- RetoComponent  -->
<g id="node18" class="node">
<title>RetoComponent </title>
<polygon fill="#fb8072" stroke="black" points="191.77,-214.8 80.23,-214.8 80.23,-178.8 191.77,-178.8 191.77,-214.8"/>
<text text-anchor="middle" x="136" y="-192.6" font-family="Times,serif" font-size="14.00">RetoComponent </text>
</g>
<!-- ComponentsModule&#45;&gt;RetoComponent  -->
<g id="edge17" class="edge">
<title>ComponentsModule&#45;&gt;RetoComponent </title>
<path fill="none" stroke="black" stroke-dasharray="5,2" d="M573.38,-134.8C444.48,-134.8 170.62,-134.8 170.62,-134.8 170.62,-134.8 170.62,-168.53 170.62,-168.53"/>
<polygon fill="black" stroke="black" points="167.13,-168.53 170.62,-178.53 174.13,-168.53 167.13,-168.53"/>
</g>
</g>
</svg>
