<?xml version="1.0" encoding="UTF-8" standalone="no"?>
<!DOCTYPE svg PUBLIC "-//W3C//DTD SVG 1.1//EN"
 "http://www.w3.org/Graphics/SVG/1.1/DTD/svg11.dtd">
<!-- Generated by graphviz version 5.0.0 (20220707.1540)
 -->
<!-- Title: dependencies Pages: 1 -->
<svg width="350pt" height="174pt"
 viewBox="0.00 0.00 350.00 173.80" xmlns="http://www.w3.org/2000/svg" xmlns:xlink="http://www.w3.org/1999/xlink">
<g id="graph0" class="graph" transform="scale(1 1) rotate(0) translate(4 169.8)">
<title>dependencies</title>
<polygon fill="white" stroke="transparent" points="-4,4 -4,-169.8 346,-169.8 346,4 -4,4"/>
<text text-anchor="middle" x="171" y="-8.2" font-family="sans-serif" font-size="14.00">dependencies</text>
<g id="clust1" class="cluster">
<title>cluster_RankingPageModule</title>
<polygon fill="none" stroke="black" stroke-dasharray="1,5" points="8,-32.8 8,-157.8 334,-157.8 334,-32.8 8,-32.8"/>
</g>
<g id="clust4" class="cluster">
<title>cluster_RankingPageModule_imports</title>
<polygon fill="none" stroke="black" points="130,-40.8 130,-92.8 326,-92.8 326,-40.8 130,-40.8"/>
</g>
<g id="clust2" class="cluster">
<title>cluster_RankingPageModule_declarations</title>
<polygon fill="none" stroke="black" points="16,-40.8 16,-92.8 122,-92.8 122,-40.8 16,-40.8"/>
</g>
<!-- RankingPage -->
<g id="node1" class="node">
<title>RankingPage</title>
<polygon fill="#ffffb3" stroke="black" points="114.16,-84.8 23.84,-84.8 23.84,-48.8 114.16,-48.8 114.16,-84.8"/>
<text text-anchor="middle" x="69" y="-62.6" font-family="Times,serif" font-size="14.00">RankingPage</text>
</g>
<!-- RankingPageModule -->
<g id="node2" class="node">
<title>RankingPageModule</title>
<polygon fill="#8dd3c7" stroke="black" points="222.21,-149.8 219.21,-153.8 198.21,-153.8 195.21,-149.8 87.79,-149.8 87.79,-113.8 222.21,-113.8 222.21,-149.8"/>
<text text-anchor="middle" x="155" y="-127.6" font-family="Times,serif" font-size="14.00">RankingPageModule</text>
</g>
<!-- RankingPage&#45;&gt;RankingPageModule -->
<g id="edge1" class="edge">
<title>RankingPage&#45;&gt;RankingPageModule</title>
<path fill="none" stroke="black" d="M101.11,-84.91C101.11,-84.91 101.11,-103.79 101.11,-103.79"/>
<polygon fill="black" stroke="black" points="97.61,-103.79 101.11,-113.79 104.61,-103.79 97.61,-103.79"/>
</g>
<!-- RankingPageRoutingModule -->
<g id="node3" class="node">
<title>RankingPageRoutingModule</title>
<polygon fill="#8dd3c7" stroke="black" points="317.82,-84.8 314.82,-88.8 293.82,-88.8 290.82,-84.8 138.18,-84.8 138.18,-48.8 317.82,-48.8 317.82,-84.8"/>
<text text-anchor="middle" x="228" y="-62.6" font-family="Times,serif" font-size="14.00">RankingPageRoutingModule</text>
</g>
<!-- RankingPageRoutingModule&#45;&gt;RankingPageModule -->
<g id="edge2" class="edge">
<title>RankingPageRoutingModule&#45;&gt;RankingPageModule</title>
<path fill="none" stroke="black" d="M180.22,-84.91C180.22,-84.91 180.22,-103.79 180.22,-103.79"/>
<polygon fill="black" stroke="black" points="176.72,-103.79 180.22,-113.79 183.72,-103.79 176.72,-103.79"/>
</g>
</g>
</svg>
